<svg xmlns="http://www.w3.org/2000/svg" width="155" height="155">
    <path fill="#fff" stroke="#000" id="a-in" d="M65.47.58H23.14c-.16 19.46 8.68 30.99 12.04 34.66C31.5 31.88 19.97 23.04.52 23.2v42.33l95.73 30.8L65.47.58z"/>
    <path fill="#fff" stroke="#000" id="c-out" d="M77.39 77.47s-57.75 55.12-54.66 76.78a3409.7 3409.7 0 0 0 42.96.02c-2.61-11.71 36.56-48.8 38.17-50.33"/>
    <path fill="#fff" stroke="#000" id="b-out" d="M61.1 40.81C48.84 52.73 8.5 90.86.5 89.07l.02 42.96c25.38.81 76.87-54.56 76.87-54.56"/>
    <path fill="#fff" stroke="#000" id="b-in" d="M77.39 77.47S137.2 20.26 132.06.58A3409.7 3409.7 0 0 0 89.1.56C90.9 8.63 72.84 28.77 60.92 41"/>
    <path fill="#fff" stroke="#000" id="c-in" d="M103.91 103.99s38.43-40.9 50.38-38.23l-.02-42.96c-21.12-3.82-76.78 54.66-76.78 54.66"/>
    <path fill="#fff" stroke="#000" id="d-in" d="M128.17 91.91L86.91.58h-29.6c-11.83 22.82 22.3 79.08 22.3 79.08S23.35 45.53.53 57.36v29.6l91.33 41.26 18.15-18.15 18.16-18.16zM40.08 60.8L60.91 41"/>
    <path fill="#fff" stroke="#000" id="d-out" d="M130.95 130.91s9.72 7.55 23.25 1.13V89.87l-44.2 20.1-20.1 44.2h42.17c6.43-13.54-1.12-23.26-1.12-23.26z"/>
    <path fill="#fff" stroke="#000" id="a-out" d="M154.18 98.24v-8.37l.11-24.21c-6.77-6.16-24.01-1.99-24.01-1.99L96.96 96.94l-33.27 33.32s-4.18 17.23 1.99 24.01l24.21-.11h8.37l27.96-27.96 27.96-27.96z"/>

    <path fill="#000000" d="M35.4 40.09Q35.12 39.81 35.25 39.68Q35.27 39.67 35.37 39.59L40.5 36.55Q40.69 36.43 41 36.73L41.34 37.07Q41.64 37.37 41.53 37.58L38.48 42.7Q38.4 42.8 38.38 42.82Q38.26 42.95 38 42.69L37.74 42.43Q37.47 42.16 37.56 42.01L38.23 40.94L37.12 39.83L36.05 40.5Q35.9 40.59 35.65 40.35L35.4 40.09ZM37.92 39.28L38.78 40.14L39.92 38.32Q40.08 38.07 40.3 37.79L40.27 37.76Q39.99 37.97 39.74 38.13L37.92 39.28ZM35.23 39.92Q34.95 39.64 35.08 39.52Q35.1 39.5 35.2 39.42L40.33 36.38Q40.53 36.26 40.83 36.56L41.17 36.9Q41.47 37.21 41.36 37.41L38.31 42.53Q38.24 42.63 38.22 42.65Q38.09 42.78 37.83 42.52L37.57 42.27Q37.3 41.99 37.4 41.85L38.06 40.77L36.96 39.66L35.88 40.33Q35.73 40.43 35.49 40.18L35.23 39.92ZM37.75 39.11L38.62 39.97L39.76 38.15Q39.92 37.9 40.13 37.62L40.1 37.59Q39.82 37.8 39.57 37.96L37.75 39.11ZM40.16 42.05Q40.07 41.96 40.1 41.86Q40.13 41.75 40.27 41.61L40.32 41.56Q40.46 41.42 40.57 41.39Q40.67 41.36 40.76 41.45L41.79 42.48Q41.88 42.57 41.85 42.68Q41.83 42.78 41.68 42.92L41.63 42.97Q41.49 43.11 41.38 43.15Q41.28 43.17 41.19 43.08L40.16 42.05ZM39.99 41.88Q39.9 41.79 39.93 41.69Q39.96 41.58 40.1 41.44L40.15 41.39Q40.3 41.25 40.4 41.22Q40.5 41.2 40.59 41.29L41.62 42.32Q41.71 42.41 41.68 42.51Q41.66 42.61 41.51 42.76L41.46 42.81Q41.32 42.95 41.21 42.98Q41.11 43 41.02 42.91L39.99 41.88ZM40.98 45.69Q40.66 45.36 40.85 45.17L44.96 41.06Q45.15 40.87 45.47 41.19L45.68 41.4Q46 41.72 45.81 41.91L41.7 46.02Q41.51 46.21 41.19 45.9L40.98 45.69ZM40.81 45.52Q40.49 45.19 40.68 45L44.79 40.89Q44.98 40.7 45.31 41.02L45.52 41.23Q45.83 41.55 45.64 41.74L41.53 45.85Q41.34 46.05 41.02 45.73L40.81 45.52ZM42.79 47.49Q42.48 47.17 42.66 46.98L44.76 44.88Q45.2 44.44 45.36 44.22Q45.52 44 45.55 43.97Q45.65 43.87 45.91 44.04Q46.19 44.21 46.35 44.37Q46.46 44.48 46.42 44.6Q46.39 44.71 46.29 44.83Q46.21 44.95 46.15 45.03Q46.5 44.96 46.85 45.04Q47.2 45.12 47.45 45.37Q47.82 45.74 47.78 46.17Q47.73 46.6 47.28 47.05L45 49.33Q44.82 49.51 44.49 49.19L44.33 49.03Q44 48.7 44.19 48.51L46.31 46.39Q46.52 46.18 46.54 46Q46.57 45.83 46.41 45.67Q46.29 45.55 46.1 45.52Q45.91 45.49 45.72 45.55L43.47 47.79Q43.37 47.89 43.25 47.85Q43.12 47.82 42.96 47.65L42.79 47.49ZM42.63 47.32Q42.31 47 42.49 46.82L44.59 44.72Q45.03 44.28 45.19 44.05Q45.35 43.83 45.38 43.8Q45.48 43.7 45.74 43.87Q46.02 44.04 46.18 44.21Q46.29 44.31 46.25 44.43Q46.22 44.54 46.13 44.66Q46.04 44.79 45.99 44.86Q46.34 44.79 46.68 44.87Q47.03 44.95 47.28 45.21Q47.65 45.57 47.61 46Q47.56 46.43 47.11 46.88L44.83 49.16Q44.65 49.34 44.33 49.02L44.17 48.86Q43.84 48.53 44.02 48.34L46.14 46.22Q46.35 46.01 46.37 45.84Q46.41 45.66 46.24 45.5Q46.12 45.38 45.93 45.35Q45.74 45.32 45.55 45.38L43.3 47.62Q43.21 47.72 43.08 47.68Q42.96 47.65 42.79 47.48L42.63 47.32Z"/>
    <path fill="#000000" d="M73.72 34.38Q73.6 34.27 73.6 34.17Q73.61 34.06 73.74 33.93L77.72 29.95Q77.85 29.82 77.95 29.82Q78.06 29.81 78.17 29.93L79.33 31.09Q80.14 31.9 79.99 32.84Q79.85 33.79 78.71 34.93Q77.57 36.06 76.63 36.21Q75.68 36.35 74.88 35.54L73.72 34.38ZM75.07 34.31L75.56 34.8Q75.95 35.19 76.49 35.03Q77.04 34.87 77.85 34.06Q78.66 33.25 78.81 32.71Q78.98 32.16 78.59 31.77L78.1 31.28L75.07 34.31ZM73.55 34.22Q73.43 34.1 73.43 34Q73.44 33.89 73.57 33.76L77.55 29.78Q77.68 29.65 77.78 29.65Q77.89 29.65 78 29.76L79.16 30.92Q79.97 31.73 79.82 32.68Q79.68 33.62 78.55 34.76Q77.41 35.9 76.46 36.04Q75.52 36.18 74.71 35.37L73.55 34.22ZM74.9 34.15L75.4 34.64Q75.78 35.02 76.32 34.87Q76.87 34.7 77.68 33.89Q78.49 33.08 78.65 32.54Q78.81 32 78.42 31.61L77.93 31.12L74.9 34.15ZM78.6 36.49Q78.51 36.4 78.53 36.3Q78.57 36.19 78.71 36.05L78.76 36Q78.9 35.85 79.01 35.83Q79.11 35.8 79.2 35.89L80.23 36.92Q80.32 37.01 80.29 37.11Q80.27 37.22 80.12 37.36L80.07 37.41Q79.93 37.55 79.82 37.59Q79.72 37.61 79.63 37.52L78.6 36.49ZM78.43 36.32Q78.34 36.23 78.37 36.13Q78.4 36.02 78.54 35.88L78.59 35.83Q78.74 35.69 78.84 35.66Q78.94 35.64 79.03 35.72L80.06 36.76Q80.15 36.84 80.12 36.95Q80.1 37.05 79.95 37.19L79.9 37.25Q79.76 37.39 79.65 37.42Q79.55 37.44 79.46 37.35L78.43 36.32ZM79.42 40.12Q79.09 39.8 79.29 39.61L83.4 35.5Q83.59 35.31 83.91 35.63L84.12 35.84Q84.44 36.16 84.25 36.35L80.14 40.46Q79.95 40.65 79.63 40.33L79.42 40.12ZM79.25 39.96Q78.93 39.63 79.12 39.44L83.23 35.33Q83.42 35.14 83.74 35.46L83.95 35.67Q84.27 35.99 84.08 36.18L79.97 40.29Q79.78 40.48 79.46 40.17L79.25 39.96ZM81.23 41.93Q80.91 41.61 81.1 41.42L83.2 39.32Q83.64 38.88 83.8 38.66Q83.96 38.44 83.99 38.41Q84.09 38.3 84.35 38.48Q84.63 38.65 84.79 38.81Q84.9 38.92 84.86 39.04Q84.83 39.14 84.73 39.27Q84.64 39.39 84.59 39.47Q84.94 39.4 85.29 39.48Q85.64 39.56 85.89 39.81Q86.26 40.18 86.22 40.61Q86.17 41.03 85.72 41.49L83.44 43.76Q83.26 43.95 82.93 43.62L82.77 43.47Q82.44 43.13 82.63 42.95L84.75 40.83Q84.96 40.62 84.98 40.44Q85.01 40.27 84.85 40.11Q84.73 39.98 84.54 39.96Q84.35 39.93 84.15 39.98L81.91 42.23Q81.81 42.33 81.68 42.29Q81.56 42.26 81.4 42.09L81.23 41.93ZM81.07 41.76Q80.75 41.44 80.93 41.25L83.03 39.15Q83.47 38.72 83.63 38.49Q83.79 38.27 83.82 38.24Q83.92 38.14 84.18 38.31Q84.46 38.48 84.62 38.65Q84.73 38.75 84.69 38.87Q84.66 38.98 84.57 39.1Q84.48 39.22 84.43 39.3Q84.78 39.23 85.12 39.31Q85.47 39.39 85.72 39.64Q86.09 40.01 86.05 40.44Q86 40.87 85.55 41.32L83.27 43.6Q83.09 43.78 82.76 43.46L82.61 43.3Q82.27 42.97 82.46 42.78L84.58 40.66Q84.79 40.45 84.81 40.27Q84.85 40.1 84.68 39.94Q84.56 39.82 84.37 39.79Q84.18 39.76 83.99 39.82L81.74 42.06Q81.64 42.16 81.52 42.12Q81.4 42.09 81.23 41.92L81.07 41.76Z"/>
    <path fill="#000000" d="M131 42.75Q130.12 41.87 130.26 40.92Q130.41 39.97 131.59 38.79Q132.73 37.64 133.71 37.5Q134.69 37.36 135.56 38.23Q135.91 38.58 136.06 38.9Q136.13 39.02 136.1 39.12Q136.07 39.23 135.97 39.32Q135.78 39.51 135.53 39.61Q135.29 39.7 135.23 39.54Q135.1 39.23 134.86 38.99Q134.42 38.55 133.82 38.72Q133.24 38.88 132.46 39.66Q131.68 40.44 131.51 41.03Q131.35 41.63 131.8 42.08Q131.94 42.22 132.07 42.3Q132.21 42.38 132.38 42.47Q132.43 42.5 132.45 42.52Q132.56 42.63 132.47 42.83Q132.39 43.03 132.19 43.23Q132.1 43.32 132 43.34Q131.91 43.37 131.77 43.31Q131.61 43.24 131.4 43.1Q131.19 42.95 131 42.75ZM130.83 42.58Q129.95 41.71 130.09 40.75Q130.24 39.8 131.42 38.62Q132.57 37.47 133.55 37.33Q134.53 37.19 135.39 38.06Q135.74 38.41 135.89 38.73Q135.96 38.86 135.93 38.96Q135.91 39.06 135.8 39.15Q135.61 39.35 135.36 39.44Q135.12 39.54 135.06 39.37Q134.93 39.07 134.69 38.82Q134.25 38.38 133.65 38.55Q133.07 38.72 132.29 39.49Q131.51 40.27 131.34 40.87Q131.18 41.46 131.64 41.92Q131.78 42.06 131.9 42.13Q132.04 42.22 132.22 42.3Q132.27 42.33 132.29 42.35Q132.39 42.46 132.31 42.66Q132.22 42.86 132.02 43.06Q131.93 43.15 131.83 43.18Q131.74 43.2 131.6 43.14Q131.45 43.07 131.24 42.93Q131.03 42.78 130.83 42.58ZM133.87 42.76Q133.78 42.67 133.8 42.57Q133.83 42.46 133.97 42.32L134.03 42.27Q134.17 42.12 134.27 42.1Q134.38 42.07 134.46 42.16L135.5 43.19Q135.58 43.28 135.56 43.38Q135.53 43.48 135.39 43.63L135.34 43.68Q135.2 43.82 135.09 43.85Q134.99 43.88 134.9 43.79L133.87 42.76ZM133.7 42.59Q133.61 42.5 133.64 42.4Q133.67 42.29 133.81 42.15L133.86 42.1Q134 41.95 134.11 41.93Q134.21 41.9 134.3 41.99L135.33 43.02Q135.42 43.11 135.39 43.21Q135.37 43.32 135.22 43.46L135.17 43.51Q135.03 43.65 134.92 43.69Q134.82 43.71 134.73 43.62L133.7 42.59ZM134.69 46.39Q134.36 46.07 134.55 45.88L138.66 41.77Q138.86 41.58 139.18 41.9L139.39 42.11Q139.71 42.43 139.52 42.62L135.41 46.73Q135.22 46.92 134.9 46.6L134.69 46.39ZM134.52 46.22Q134.2 45.9 134.39 45.71L138.5 41.6Q138.69 41.41 139.01 41.73L139.22 41.94Q139.54 42.26 139.35 42.45L135.24 46.56Q135.05 46.75 134.73 46.43L134.52 46.22ZM136.5 48.19Q136.18 47.88 136.37 47.69L138.47 45.59Q138.91 45.15 139.07 44.93Q139.23 44.71 139.26 44.67Q139.36 44.57 139.62 44.74Q139.89 44.92 140.06 45.08Q140.17 45.19 140.13 45.3Q140.1 45.41 140 45.53Q139.91 45.66 139.86 45.74Q140.21 45.67 140.56 45.74Q140.91 45.83 141.16 46.08Q141.53 46.45 141.48 46.88Q141.44 47.3 140.99 47.75L138.71 50.03Q138.52 50.22 138.2 49.89L138.04 49.73Q137.71 49.4 137.89 49.22L140.01 47.1Q140.22 46.89 140.25 46.71Q140.28 46.54 140.12 46.37Q140 46.25 139.8 46.23Q139.62 46.2 139.42 46.25L137.18 48.5Q137.08 48.59 136.95 48.56Q136.83 48.52 136.67 48.36L136.5 48.19ZM136.33 48.03Q136.02 47.71 136.2 47.52L138.3 45.42Q138.74 44.98 138.9 44.76Q139.06 44.54 139.09 44.51Q139.19 44.4 139.45 44.58Q139.73 44.75 139.89 44.91Q140 45.02 139.96 45.14Q139.93 45.24 139.83 45.37Q139.74 45.49 139.69 45.57Q140.04 45.5 140.39 45.58Q140.74 45.66 140.99 45.91Q141.36 46.28 141.32 46.71Q141.27 47.13 140.82 47.59L138.54 49.86Q138.36 50.05 138.03 49.72L137.87 49.57Q137.54 49.23 137.73 49.05L139.85 46.93Q140.06 46.72 140.08 46.54Q140.11 46.37 139.95 46.21Q139.83 46.08 139.64 46.06Q139.45 46.03 139.25 46.08L137.01 48.33Q136.91 48.43 136.79 48.39Q136.66 48.36 136.5 48.19L136.33 48.03Z"/>
    <path fill="#000000" d="M6.72 102.38Q6.6 102.27 6.6 102.17Q6.61 102.06 6.74 101.93L10.73 97.94Q10.85 97.82 10.95 97.82Q11.06 97.81 11.17 97.93L12.3 99.06Q12.95 99.71 12.99 100.32Q13.02 100.92 12.5 101.44Q12.14 101.8 11.71 101.91Q11.29 102.02 10.9 101.89L10.88 101.91Q11.08 102.3 11.02 102.77Q10.97 103.24 10.53 103.68Q9.93 104.27 9.24 104.25Q8.56 104.22 7.86 103.52L6.72 102.38ZM9.92 100.38L10.43 100.89Q10.67 101.13 10.96 101.1Q11.24 101.07 11.53 100.77Q11.84 100.47 11.85 100.21Q11.87 99.97 11.62 99.72L11.1 99.2L9.92 100.38ZM7.98 102.31L8.59 102.92Q9.11 103.44 9.77 102.78Q10.08 102.47 10.09 102.18Q10.11 101.89 9.83 101.61L9.26 101.04L7.98 102.31ZM6.55 102.22Q6.43 102.1 6.43 102Q6.44 101.89 6.57 101.76L10.56 97.77Q10.68 97.65 10.78 97.65Q10.89 97.65 11 97.76L12.13 98.89Q12.79 99.54 12.82 100.15Q12.85 100.75 12.33 101.27Q11.97 101.63 11.55 101.74Q11.12 101.85 10.74 101.72L10.71 101.75Q10.92 102.13 10.85 102.6Q10.8 103.07 10.36 103.51Q9.76 104.11 9.08 104.08Q8.39 104.06 7.69 103.36L6.55 102.22ZM9.75 100.21L10.27 100.73Q10.5 100.96 10.79 100.93Q11.07 100.9 11.37 100.61Q11.67 100.3 11.69 100.05Q11.7 99.8 11.46 99.55L10.93 99.03L9.75 100.21ZM7.82 102.15L8.42 102.75Q8.94 103.27 9.6 102.61Q9.92 102.3 9.92 102.01Q9.94 101.73 9.66 101.45L9.09 100.87L7.82 102.15ZM11.38 104.27Q11.29 104.18 11.31 104.08Q11.34 103.97 11.48 103.83L11.53 103.78Q11.68 103.63 11.78 103.61Q11.88 103.58 11.97 103.67L13 104.7Q13.09 104.79 13.07 104.89Q13.04 104.99 12.9 105.14L12.85 105.19Q12.71 105.33 12.6 105.36Q12.5 105.39 12.41 105.3L11.38 104.27ZM11.21 104.1Q11.12 104.01 11.14 103.91Q11.18 103.8 11.32 103.66L11.37 103.61Q11.51 103.46 11.62 103.44Q11.72 103.41 11.81 103.5L12.84 104.53Q12.93 104.62 12.9 104.72Q12.88 104.83 12.73 104.97L12.68 105.02Q12.54 105.16 12.43 105.19Q12.33 105.22 12.24 105.13L11.21 104.1ZM13.35 109.1Q11.71 107.46 13.98 105.18Q16.25 102.92 17.89 104.56Q19.53 106.2 17.26 108.46Q14.98 110.74 13.35 109.1ZM14.07 108.4Q14.46 108.79 15 108.62Q15.56 108.45 16.4 107.6Q17.25 106.76 17.41 106.22Q17.58 105.67 17.19 105.28Q16.79 104.88 16.24 105.04Q15.7 105.2 14.85 106.05Q14 106.9 13.83 107.45Q13.67 108 14.07 108.4ZM13.18 108.94Q11.54 107.29 13.82 105.02Q16.08 102.75 17.72 104.39Q19.36 106.03 17.09 108.29Q14.82 110.57 13.18 108.94ZM13.9 108.23Q14.29 108.62 14.84 108.45Q15.39 108.28 16.24 107.43Q17.08 106.59 17.24 106.05Q17.41 105.51 17.02 105.11Q16.62 104.71 16.07 104.88Q15.53 105.04 14.68 105.88Q13.84 106.73 13.66 107.28Q13.5 107.83 13.9 108.23ZM16.53 112.3Q16.16 111.92 16.19 111.5Q16.23 111.06 16.66 110.63L18.97 108.32Q19.15 108.14 19.48 108.46L19.64 108.62Q19.81 108.79 19.84 108.91Q19.87 109.03 19.78 109.13L17.63 111.27Q17.43 111.47 17.4 111.64Q17.38 111.82 17.55 111.98Q17.68 112.11 17.86 112.14Q18.05 112.17 18.25 112.11L20.5 109.86Q20.69 109.67 21.01 110L21.18 110.16Q21.49 110.48 21.31 110.66L19.2 112.77Q18.77 113.2 18.61 113.43Q18.45 113.65 18.41 113.69Q18.31 113.79 18.05 113.62Q17.78 113.45 17.61 113.28Q17.5 113.17 17.54 113.06Q17.57 112.95 17.66 112.82Q17.76 112.7 17.81 112.62Q17.46 112.69 17.12 112.62Q16.79 112.55 16.53 112.3ZM16.36 112.13Q15.99 111.76 16.02 111.33Q16.06 110.9 16.49 110.46L18.8 108.15Q18.98 107.97 19.31 108.29L19.47 108.45Q19.64 108.62 19.67 108.75Q19.7 108.87 19.61 108.96L17.46 111.11Q17.27 111.3 17.23 111.48Q17.22 111.65 17.38 111.81Q17.51 111.94 17.69 111.97Q17.88 112 18.08 111.94L20.33 109.69Q20.52 109.5 20.84 109.83L21.01 109.99Q21.33 110.31 21.14 110.5L19.04 112.6Q18.6 113.04 18.44 113.26Q18.28 113.49 18.24 113.53Q18.14 113.63 17.88 113.46Q17.62 113.28 17.44 113.11Q17.34 113 17.37 112.9Q17.41 112.78 17.5 112.65Q17.59 112.53 17.64 112.46Q17.29 112.53 16.95 112.46Q16.62 112.39 16.36 112.13ZM19.87 115.63Q19.53 115.28 19.53 114.85Q19.54 114.42 20.02 113.94L21.83 112.13L21.72 112.01Q21.63 111.92 21.65 111.82Q21.67 111.71 21.82 111.57L21.91 111.47Q22.06 111.33 22.16 111.3Q22.27 111.28 22.36 111.37L22.47 111.48L23.18 110.94Q23.38 110.78 23.66 111.05L23.81 111.2Q24.08 111.48 23.9 111.66L23.28 112.29L23.58 112.59Q23.66 112.67 23.64 112.78Q23.62 112.88 23.47 113.03L23.38 113.13Q23.23 113.27 23.12 113.29Q23.02 113.32 22.93 113.23L22.63 112.93L20.83 114.73Q20.68 114.88 20.65 115Q20.64 115.11 20.73 115.2Q20.78 115.25 20.85 115.3Q20.92 115.34 20.95 115.37Q21.02 115.44 20.91 115.65Q20.8 115.86 20.72 115.94Q20.58 116.08 20.32 115.95Q20.08 115.83 19.87 115.63ZM19.7 115.46Q19.36 115.12 19.36 114.68Q19.37 114.25 19.85 113.77L21.66 111.96L21.55 111.85Q21.46 111.76 21.48 111.65Q21.5 111.55 21.65 111.4L21.75 111.3Q21.89 111.16 21.99 111.13Q22.1 111.11 22.19 111.2L22.31 111.32L23.01 110.78Q23.22 110.61 23.49 110.88L23.64 111.04Q23.92 111.31 23.73 111.5L23.11 112.12L23.41 112.42Q23.5 112.51 23.47 112.61Q23.45 112.72 23.31 112.86L23.21 112.96Q23.06 113.11 22.96 113.12Q22.85 113.15 22.76 113.06L22.47 112.76L20.66 114.56Q20.51 114.72 20.49 114.83Q20.47 114.94 20.56 115.03Q20.61 115.08 20.68 115.13Q20.75 115.17 20.78 115.2Q20.85 115.27 20.74 115.48Q20.63 115.69 20.55 115.77Q20.41 115.91 20.16 115.78Q19.91 115.66 19.7 115.46Z"/>
    <path fill="#000000" d="M38 135.75Q37.12 134.87 37.26 133.92Q37.41 132.97 38.59 131.79Q39.73 130.64 40.71 130.5Q41.69 130.36 42.56 131.23Q42.91 131.58 43.06 131.9Q43.13 132.02 43.1 132.12Q43.07 132.23 42.97 132.32Q42.78 132.51 42.53 132.61Q42.29 132.7 42.23 132.54Q42.1 132.23 41.86 131.99Q41.42 131.55 40.82 131.72Q40.24 131.88 39.46 132.66Q38.68 133.44 38.51 134.03Q38.35 134.63 38.8 135.08Q38.94 135.22 39.07 135.3Q39.21 135.38 39.38 135.47Q39.43 135.5 39.45 135.52Q39.56 135.63 39.47 135.83Q39.39 136.03 39.19 136.23Q39.1 136.32 39 136.34Q38.91 136.37 38.77 136.31Q38.61 136.24 38.4 136.1Q38.19 135.95 38 135.75ZM37.83 135.58Q36.95 134.71 37.09 133.75Q37.24 132.8 38.42 131.62Q39.57 130.47 40.55 130.33Q41.53 130.19 42.39 131.06Q42.74 131.41 42.89 131.73Q42.96 131.86 42.93 131.96Q42.91 132.06 42.8 132.15Q42.61 132.35 42.36 132.44Q42.12 132.54 42.06 132.37Q41.93 132.07 41.69 131.82Q41.25 131.38 40.65 131.55Q40.07 131.72 39.29 132.49Q38.51 133.27 38.34 133.87Q38.18 134.46 38.64 134.92Q38.78 135.06 38.9 135.13Q39.04 135.22 39.22 135.3Q39.27 135.33 39.29 135.35Q39.39 135.46 39.31 135.66Q39.22 135.86 39.02 136.06Q38.93 136.15 38.83 136.18Q38.74 136.2 38.6 136.14Q38.45 136.07 38.24 135.93Q38.03 135.78 37.83 135.58ZM40.87 135.76Q40.78 135.67 40.8 135.57Q40.83 135.46 40.97 135.32L41.03 135.27Q41.17 135.12 41.27 135.1Q41.38 135.07 41.46 135.16L42.5 136.19Q42.58 136.28 42.56 136.38Q42.53 136.48 42.39 136.63L42.34 136.68Q42.2 136.82 42.09 136.85Q41.99 136.88 41.9 136.79L40.87 135.76ZM40.7 135.59Q40.61 135.5 40.64 135.4Q40.67 135.29 40.81 135.15L40.86 135.1Q41 134.95 41.11 134.93Q41.21 134.9 41.3 134.99L42.33 136.02Q42.42 136.11 42.39 136.21Q42.37 136.32 42.22 136.46L42.17 136.51Q42.03 136.65 41.92 136.69Q41.82 136.71 41.73 136.62L40.7 135.59ZM42.84 140.6Q41.2 138.95 43.48 136.68Q45.74 134.41 47.38 136.05Q49.02 137.69 46.75 139.95Q44.47 142.23 42.84 140.6ZM43.56 139.89Q43.95 140.28 44.49 140.11Q45.05 139.94 45.89 139.09Q46.74 138.25 46.9 137.71Q47.07 137.17 46.68 136.77Q46.28 136.37 45.73 136.54Q45.19 136.69 44.34 137.54Q43.49 138.39 43.32 138.94Q43.16 139.49 43.56 139.89ZM42.67 140.43Q41.03 138.79 43.31 136.51Q45.57 134.24 47.22 135.88Q48.85 137.52 46.59 139.78Q44.31 142.06 42.67 140.43ZM43.39 139.72Q43.78 140.11 44.33 139.94Q44.88 139.77 45.73 138.93Q46.57 138.08 46.73 137.54Q46.9 137 46.51 136.6Q46.11 136.2 45.56 136.37Q45.02 136.53 44.17 137.37Q43.33 138.22 43.16 138.77Q42.99 139.32 43.39 139.72ZM46.02 143.79Q45.65 143.41 45.68 142.99Q45.72 142.56 46.15 142.12L48.46 139.81Q48.64 139.63 48.97 139.95L49.13 140.11Q49.3 140.28 49.33 140.4Q49.36 140.53 49.27 140.62L47.12 142.77Q46.93 142.96 46.89 143.13Q46.87 143.31 47.04 143.47Q47.17 143.6 47.35 143.63Q47.54 143.66 47.74 143.6L49.99 141.35Q50.18 141.16 50.5 141.49L50.67 141.65Q50.99 141.97 50.8 142.15L48.69 144.26Q48.26 144.69 48.1 144.92Q47.94 145.15 47.9 145.18Q47.8 145.29 47.54 145.11Q47.28 144.94 47.1 144.77Q47 144.66 47.03 144.55Q47.07 144.44 47.15 144.31Q47.25 144.19 47.3 144.11Q46.95 144.18 46.61 144.11Q46.28 144.04 46.02 143.79ZM45.85 143.62Q45.48 143.25 45.51 142.82Q45.55 142.39 45.98 141.95L48.29 139.64Q48.48 139.46 48.8 139.78L48.96 139.94Q49.13 140.12 49.16 140.24Q49.19 140.36 49.1 140.45L46.95 142.6Q46.76 142.79 46.73 142.97Q46.71 143.14 46.87 143.3Q47 143.43 47.18 143.46Q47.37 143.49 47.57 143.43L49.82 141.18Q50.01 140.99 50.33 141.32L50.5 141.48Q50.82 141.8 50.63 141.99L48.53 144.09Q48.09 144.53 47.93 144.76Q47.77 144.98 47.73 145.02Q47.63 145.12 47.37 144.95Q47.11 144.77 46.94 144.6Q46.83 144.49 46.86 144.39Q46.9 144.27 46.99 144.14Q47.08 144.02 47.13 143.95Q46.78 144.02 46.45 143.95Q46.11 143.88 45.85 143.62ZM49.36 147.12Q49.02 146.77 49.02 146.34Q49.03 145.91 49.51 145.43L51.32 143.62L51.21 143.5Q51.12 143.41 51.14 143.31Q51.16 143.2 51.31 143.06L51.41 142.96Q51.55 142.82 51.65 142.79Q51.76 142.77 51.85 142.86L51.97 142.98L52.67 142.43Q52.88 142.27 53.15 142.54L53.3 142.7Q53.58 142.97 53.39 143.15L52.77 143.78L53.07 144.08Q53.16 144.17 53.13 144.27Q53.11 144.38 52.96 144.52L52.87 144.62Q52.72 144.76 52.61 144.78Q52.51 144.81 52.42 144.72L52.12 144.42L50.32 146.22Q50.17 146.37 50.15 146.49Q50.13 146.6 50.22 146.69Q50.27 146.74 50.34 146.79Q50.41 146.83 50.44 146.86Q50.51 146.93 50.4 147.14Q50.29 147.35 50.21 147.43Q50.07 147.57 49.81 147.44Q49.57 147.32 49.36 147.12ZM49.19 146.95Q48.85 146.61 48.85 146.17Q48.86 145.74 49.34 145.26L51.15 143.45L51.04 143.34Q50.95 143.25 50.97 143.14Q51 143.04 51.14 142.89L51.24 142.79Q51.38 142.65 51.49 142.62Q51.59 142.6 51.68 142.69L51.8 142.81L52.5 142.27Q52.71 142.1 52.98 142.37L53.13 142.53Q53.41 142.8 53.22 142.99L52.6 143.61L52.9 143.91Q52.99 144 52.96 144.1Q52.94 144.21 52.8 144.35L52.7 144.45Q52.55 144.6 52.45 144.62Q52.34 144.64 52.26 144.55L51.96 144.25L50.16 146.05Q50 146.21 49.98 146.32Q49.96 146.44 50.05 146.52Q50.1 146.58 50.17 146.62Q50.24 146.66 50.27 146.69Q50.34 146.76 50.23 146.97Q50.12 147.18 50.04 147.26Q49.9 147.4 49.65 147.28Q49.4 147.15 49.19 146.95Z"/>
    <path fill="#000000" d="M101.72 10.38Q101.6 10.27 101.6 10.17Q101.61 10.06 101.74 9.93L105.73 5.94Q105.85 5.82 105.95 5.82Q106.06 5.81 106.17 5.93L107.3 7.06Q107.95 7.71 107.99 8.32Q108.02 8.92 107.5 9.44Q107.14 9.8 106.71 9.91Q106.29 10.02 105.9 9.89L105.88 9.91Q106.08 10.3 106.02 10.77Q105.97 11.24 105.53 11.68Q104.93 12.27 104.24 12.25Q103.56 12.22 102.86 11.52L101.72 10.38ZM104.92 8.38L105.43 8.89Q105.67 9.13 105.96 9.1Q106.24 9.07 106.53 8.77Q106.84 8.47 106.85 8.21Q106.87 7.97 106.62 7.72L106.1 7.2L104.92 8.38ZM102.98 10.31L103.59 10.92Q104.11 11.44 104.77 10.78Q105.08 10.47 105.09 10.18Q105.11 9.89 104.83 9.61L104.26 9.04L102.98 10.31ZM101.55 10.22Q101.43 10.1 101.43 10Q101.44 9.89 101.57 9.76L105.56 5.77Q105.68 5.65 105.78 5.65Q105.89 5.65 106 5.76L107.13 6.89Q107.79 7.54 107.82 8.15Q107.85 8.75 107.33 9.27Q106.97 9.63 106.55 9.74Q106.12 9.85 105.74 9.72L105.71 9.75Q105.92 10.13 105.85 10.6Q105.8 11.07 105.36 11.51Q104.76 12.11 104.08 12.08Q103.39 12.06 102.69 11.36L101.55 10.22ZM104.75 8.21L105.27 8.73Q105.5 8.96 105.79 8.93Q106.07 8.9 106.37 8.61Q106.67 8.3 106.69 8.05Q106.7 7.8 106.46 7.55L105.93 7.03L104.75 8.21ZM102.82 10.15L103.42 10.75Q103.94 11.27 104.6 10.61Q104.92 10.3 104.92 10.01Q104.94 9.73 104.66 9.45L104.09 8.87L102.82 10.15ZM106.38 12.27Q106.29 12.18 106.31 12.08Q106.34 11.97 106.48 11.83L106.53 11.78Q106.68 11.63 106.78 11.61Q106.88 11.58 106.97 11.67L108 12.7Q108.09 12.79 108.07 12.89Q108.04 12.99 107.9 13.14L107.85 13.19Q107.71 13.33 107.6 13.36Q107.5 13.39 107.41 13.3L106.38 12.27ZM106.21 12.1Q106.12 12.01 106.14 11.91Q106.18 11.8 106.32 11.66L106.37 11.61Q106.51 11.46 106.62 11.44Q106.72 11.41 106.81 11.5L107.84 12.53Q107.93 12.62 107.9 12.72Q107.88 12.83 107.73 12.97L107.68 13.02Q107.54 13.16 107.43 13.19Q107.33 13.22 107.24 13.13L106.21 12.1ZM107.2 15.9Q106.87 15.58 107.06 15.39L111.17 11.28Q111.37 11.08 111.69 11.41L111.9 11.62Q112.22 11.94 112.03 12.13L107.92 16.24Q107.72 16.43 107.41 16.11L107.2 15.9ZM107.03 15.73Q106.7 15.41 106.9 15.22L111.01 11.11Q111.2 10.92 111.52 11.24L111.73 11.45Q112.05 11.77 111.86 11.96L107.75 16.07Q107.56 16.26 107.24 15.94L107.03 15.73ZM109.01 17.7Q108.69 17.38 108.88 17.2L110.98 15.1Q111.42 14.66 111.58 14.44Q111.73 14.22 111.77 14.18Q111.87 14.08 112.13 14.25Q112.4 14.43 112.57 14.59Q112.68 14.7 112.64 14.81Q112.61 14.92 112.51 15.04Q112.42 15.17 112.37 15.25Q112.72 15.18 113.06 15.25Q113.41 15.34 113.67 15.59Q114.04 15.96 113.99 16.39Q113.95 16.81 113.5 17.26L111.22 19.54Q111.03 19.73 110.71 19.4L110.55 19.24Q110.22 18.91 110.4 18.73L112.52 16.61Q112.73 16.4 112.76 16.22Q112.79 16.05 112.63 15.88Q112.5 15.76 112.31 15.74Q112.13 15.7 111.93 15.76L109.68 18.01Q109.59 18.1 109.46 18.07Q109.34 18.03 109.18 17.87L109.01 17.7ZM108.84 17.53Q108.52 17.22 108.71 17.03L110.81 14.93Q111.25 14.49 111.41 14.27Q111.57 14.05 111.6 14.02Q111.7 13.91 111.96 14.09Q112.23 14.26 112.4 14.42Q112.51 14.53 112.47 14.65Q112.44 14.75 112.34 14.87Q112.25 15 112.2 15.08Q112.55 15.01 112.9 15.08Q113.25 15.17 113.5 15.42Q113.87 15.79 113.83 16.22Q113.78 16.64 113.33 17.1L111.05 19.37Q110.87 19.56 110.54 19.23L110.38 19.08Q110.05 18.74 110.24 18.56L112.36 16.44Q112.57 16.23 112.59 16.05Q112.62 15.88 112.46 15.71Q112.34 15.59 112.15 15.57Q111.96 15.54 111.76 15.59L109.52 17.84Q109.42 17.94 109.29 17.9Q109.17 17.87 109.01 17.7L108.84 17.53Z"/>
    <path fill="#000000" d="M116.13 138.81Q116.03 138.71 116.03 138.62Q116.04 138.52 116.15 138.41L119.69 134.87Q119.8 134.75 119.9 134.75Q119.99 134.75 120.09 134.85L121.12 135.88Q121.84 136.6 121.71 137.44Q121.59 138.28 120.57 139.29Q119.56 140.3 118.72 140.43Q117.88 140.56 117.16 139.84L116.13 138.81ZM117.34 138.75L117.77 139.18Q118.12 139.53 118.6 139.39Q119.09 139.24 119.8 138.52Q120.52 137.8 120.66 137.32Q120.81 136.84 120.47 136.49L120.03 136.06L117.34 138.75ZM115.98 138.66Q115.88 138.56 115.88 138.47Q115.89 138.37 116 138.26L119.54 134.72Q119.66 134.61 119.75 134.61Q119.84 134.6 119.94 134.7L120.97 135.73Q121.69 136.45 121.56 137.29Q121.44 138.13 120.43 139.14Q119.41 140.15 118.57 140.28Q117.73 140.41 117.01 139.69L115.98 138.66ZM117.19 138.6L117.62 139.03Q117.97 139.38 118.45 139.24Q118.94 139.09 119.66 138.37Q120.37 137.65 120.52 137.17Q120.66 136.69 120.32 136.34L119.88 135.91L117.19 138.6ZM120.47 140.68Q120.39 140.6 120.42 140.51Q120.44 140.42 120.57 140.29L120.61 140.25Q120.74 140.12 120.83 140.09Q120.92 140.07 121 140.15L121.92 141.07Q122 141.15 121.98 141.24Q121.95 141.33 121.82 141.46L121.78 141.5Q121.65 141.63 121.56 141.66Q121.47 141.68 121.39 141.6L120.47 140.68ZM120.32 140.53Q120.24 140.45 120.27 140.36Q120.29 140.27 120.42 140.14L120.46 140.1Q120.59 139.97 120.69 139.95Q120.78 139.92 120.86 140L121.77 140.92Q121.85 141 121.83 141.09Q121.81 141.18 121.68 141.31L121.63 141.35Q121.51 141.48 121.41 141.51Q121.32 141.53 121.24 141.45L120.32 140.53ZM122.23 144.98Q120.77 143.52 122.79 141.5Q124.81 139.48 126.27 140.94Q127.72 142.4 125.71 144.41Q123.68 146.44 122.23 144.98ZM122.87 144.35Q123.21 144.7 123.7 144.55Q124.19 144.4 124.94 143.65Q125.69 142.89 125.84 142.41Q125.99 141.93 125.64 141.58Q125.28 141.23 124.79 141.37Q124.31 141.51 123.56 142.27Q122.81 143.02 122.66 143.51Q122.51 144 122.87 144.35ZM122.08 144.83Q120.62 143.37 122.64 141.35Q124.66 139.33 126.12 140.79Q127.57 142.25 125.56 144.26Q123.53 146.29 122.08 144.83ZM122.72 144.21Q123.06 144.55 123.55 144.4Q124.04 144.25 124.79 143.5Q125.54 142.75 125.69 142.26Q125.84 141.78 125.49 141.43Q125.13 141.08 124.65 141.22Q124.16 141.37 123.41 142.12Q122.66 142.87 122.51 143.36Q122.36 143.85 122.72 144.21ZM125.05 147.82Q124.72 147.49 124.75 147.11Q124.78 146.72 125.17 146.34L127.22 144.29Q127.39 144.12 127.67 144.41L127.82 144.55Q127.97 144.71 128 144.81Q128.02 144.92 127.94 145L126.03 146.91Q125.86 147.09 125.83 147.24Q125.81 147.39 125.96 147.54Q126.07 147.65 126.24 147.68Q126.41 147.7 126.58 147.65L128.58 145.65Q128.75 145.49 129.04 145.77L129.18 145.92Q129.47 146.2 129.3 146.37L127.43 148.24Q127.05 148.63 126.9 148.83Q126.76 149.03 126.72 149.06Q126.63 149.15 126.4 149Q126.17 148.85 126.02 148.69Q125.92 148.6 125.95 148.5Q125.98 148.4 126.06 148.29Q126.15 148.18 126.19 148.11Q125.88 148.17 125.58 148.11Q125.28 148.05 125.05 147.82ZM124.91 147.67Q124.57 147.34 124.6 146.96Q124.63 146.58 125.02 146.19L127.07 144.14Q127.24 143.97 127.52 144.26L127.67 144.4Q127.82 144.56 127.85 144.66Q127.88 144.77 127.79 144.86L125.88 146.76Q125.71 146.94 125.68 147.09Q125.66 147.24 125.81 147.39Q125.92 147.5 126.09 147.53Q126.26 147.55 126.43 147.5L128.44 145.5Q128.6 145.34 128.89 145.63L129.03 145.77Q129.32 146.05 129.15 146.22L127.28 148.09Q126.9 148.48 126.75 148.68Q126.61 148.88 126.57 148.91Q126.48 149 126.25 148.85Q126.02 148.7 125.87 148.54Q125.77 148.45 125.8 148.35Q125.83 148.25 125.91 148.14Q126 148.03 126.04 147.96Q125.73 148.02 125.43 147.96Q125.13 147.9 124.91 147.67ZM128.02 150.78Q127.72 150.48 127.72 150.09Q127.73 149.71 128.15 149.28L129.77 147.67L129.66 147.57Q129.59 147.49 129.6 147.39Q129.63 147.3 129.76 147.17L129.84 147.09Q129.97 146.96 130.06 146.93Q130.16 146.92 130.24 147L130.34 147.1L130.97 146.62Q131.15 146.47 131.39 146.71L131.53 146.85Q131.77 147.09 131.61 147.26L131.05 147.81L131.32 148.08Q131.4 148.16 131.37 148.25Q131.36 148.34 131.23 148.47L131.14 148.56Q131.01 148.69 130.91 148.7Q130.82 148.73 130.75 148.65L130.48 148.38L128.88 149.98Q128.74 150.12 128.72 150.22Q128.71 150.32 128.79 150.4Q128.83 150.45 128.9 150.49Q128.96 150.53 128.98 150.55Q129.04 150.61 128.95 150.8Q128.85 150.98 128.78 151.06Q128.65 151.18 128.43 151.07Q128.21 150.96 128.02 150.78ZM127.88 150.63Q127.57 150.33 127.57 149.94Q127.58 149.56 128.01 149.13L129.62 147.52L129.52 147.42Q129.44 147.34 129.45 147.24Q129.48 147.15 129.61 147.02L129.69 146.94Q129.82 146.81 129.91 146.78Q130.01 146.77 130.09 146.85L130.19 146.95L130.82 146.47Q131 146.32 131.24 146.56L131.38 146.7Q131.62 146.94 131.46 147.11L130.9 147.66L131.17 147.93Q131.25 148.01 131.22 148.1Q131.21 148.19 131.08 148.32L130.99 148.41Q130.86 148.54 130.77 148.56Q130.68 148.58 130.6 148.5L130.33 148.23L128.73 149.83Q128.59 149.97 128.57 150.07Q128.56 150.17 128.64 150.25Q128.68 150.3 128.75 150.34Q128.81 150.38 128.83 150.4Q128.89 150.46 128.8 150.65Q128.7 150.83 128.63 150.91Q128.5 151.03 128.28 150.92Q128.06 150.81 127.88 150.63Z"/>
    <path fill="#000000" d="M106.4 101.09Q106.12 100.81 106.25 100.68Q106.27 100.67 106.37 100.59L111.5 97.55Q111.69 97.43 112 97.73L112.34 98.07Q112.64 98.37 112.53 98.58L109.48 103.7Q109.4 103.8 109.38 103.82Q109.26 103.95 109 103.69L108.74 103.43Q108.47 103.16 108.56 103.01L109.23 101.94L108.12 100.83L107.05 101.5Q106.9 101.59 106.65 101.35L106.4 101.09ZM108.92 100.28L109.78 101.14L110.92 99.32Q111.08 99.07 111.3 98.79L111.27 98.76Q110.99 98.97 110.74 99.13L108.92 100.28ZM106.23 100.92Q105.95 100.64 106.08 100.52Q106.1 100.5 106.2 100.42L111.33 97.38Q111.53 97.26 111.83 97.56L112.17 97.9Q112.47 98.21 112.36 98.41L109.31 103.53Q109.24 103.63 109.22 103.65Q109.09 103.78 108.83 103.52L108.57 103.27Q108.3 102.99 108.4 102.85L109.06 101.77L107.96 100.66L106.88 101.33Q106.73 101.43 106.49 101.18L106.23 100.92ZM108.75 100.11L109.62 100.97L110.76 99.15Q110.92 98.9 111.13 98.62L111.1 98.59Q110.82 98.8 110.57 98.96L108.75 100.11ZM111.16 103.05Q111.07 102.96 111.1 102.86Q111.13 102.75 111.27 102.61L111.32 102.56Q111.46 102.42 111.57 102.39Q111.67 102.36 111.76 102.45L112.79 103.48Q112.88 103.57 112.85 103.68Q112.83 103.78 112.68 103.92L112.63 103.97Q112.49 104.11 112.38 104.15Q112.28 104.17 112.19 104.08L111.16 103.05ZM110.99 102.88Q110.9 102.79 110.93 102.69Q110.96 102.58 111.1 102.44L111.15 102.39Q111.3 102.25 111.4 102.22Q111.5 102.2 111.59 102.29L112.62 103.32Q112.71 103.41 112.68 103.51Q112.66 103.61 112.51 103.76L112.46 103.81Q112.32 103.95 112.21 103.98Q112.11 104 112.02 103.91L110.99 102.88ZM113.13 107.89Q111.49 106.25 113.77 103.97Q116.03 101.7 117.68 103.34Q119.31 104.98 117.05 107.25Q114.77 109.52 113.13 107.89ZM113.85 107.18Q114.24 107.57 114.79 107.4Q115.34 107.23 116.19 106.39Q117.03 105.54 117.19 105Q117.36 104.46 116.97 104.06Q116.57 103.66 116.02 103.83Q115.48 103.99 114.63 104.83Q113.79 105.68 113.62 106.23Q113.45 106.78 113.85 107.18ZM112.96 107.72Q111.32 106.08 113.6 103.8Q115.87 101.53 117.51 103.18Q119.14 104.81 116.88 107.08Q114.6 109.36 112.96 107.72ZM113.68 107.01Q114.07 107.4 114.62 107.24Q115.17 107.06 116.02 106.22Q116.87 105.37 117.02 104.83Q117.2 104.29 116.8 103.9Q116.4 103.49 115.85 103.66Q115.31 103.82 114.47 104.67Q113.62 105.51 113.45 106.07Q113.28 106.61 113.68 107.01ZM116.31 111.08Q115.94 110.71 115.97 110.28Q116.01 109.85 116.44 109.42L118.75 107.11Q118.94 106.92 119.26 107.25L119.42 107.4Q119.59 107.58 119.62 107.7Q119.66 107.82 119.56 107.91L117.42 110.06Q117.22 110.26 117.19 110.43Q117.17 110.6 117.33 110.76Q117.46 110.89 117.64 110.92Q117.84 110.95 118.03 110.89L120.29 108.64Q120.47 108.45 120.79 108.78L120.96 108.94Q121.28 109.26 121.09 109.45L118.99 111.55Q118.55 111.99 118.39 112.22Q118.23 112.44 118.19 112.48Q118.09 112.58 117.83 112.41Q117.57 112.23 117.4 112.06Q117.29 111.95 117.32 111.85Q117.36 111.73 117.45 111.6Q117.54 111.48 117.59 111.41Q117.24 111.48 116.91 111.41Q116.57 111.34 116.31 111.08ZM116.15 110.92Q115.77 110.54 115.8 110.11Q115.84 109.68 116.27 109.25L118.58 106.94Q118.77 106.75 119.09 107.08L119.25 107.24Q119.42 107.41 119.46 107.53Q119.49 107.65 119.39 107.75L117.25 109.89Q117.05 110.09 117.02 110.26Q117 110.43 117.16 110.6Q117.29 110.72 117.48 110.76Q117.67 110.78 117.86 110.72L120.12 108.47Q120.3 108.29 120.63 108.61L120.79 108.78Q121.11 109.09 120.93 109.28L118.82 111.39Q118.39 111.82 118.22 112.05Q118.06 112.27 118.02 112.31Q117.92 112.41 117.66 112.24Q117.4 112.07 117.23 111.9Q117.12 111.79 117.15 111.68Q117.19 111.56 117.28 111.44Q117.37 111.32 117.43 111.24Q117.08 111.31 116.74 111.24Q116.4 111.17 116.15 110.92ZM119.66 114.41Q119.31 114.07 119.31 113.63Q119.32 113.2 119.8 112.72L121.62 110.91L121.5 110.8Q121.41 110.71 121.43 110.6Q121.46 110.5 121.6 110.35L121.7 110.26Q121.84 110.11 121.95 110.08Q122.05 110.06 122.14 110.15L122.26 110.27L122.96 109.73Q123.17 109.56 123.44 109.84L123.59 109.99Q123.87 110.26 123.68 110.45L123.06 111.07L123.36 111.37Q123.45 111.46 123.42 111.56Q123.4 111.67 123.26 111.81L123.16 111.91Q123.02 112.06 122.91 112.08Q122.81 112.1 122.72 112.01L122.42 111.71L120.62 113.51Q120.46 113.67 120.44 113.78Q120.43 113.9 120.51 113.98Q120.57 114.04 120.64 114.08Q120.71 114.12 120.73 114.15Q120.8 114.22 120.69 114.43Q120.58 114.64 120.5 114.72Q120.36 114.86 120.11 114.74Q119.86 114.61 119.66 114.41ZM119.49 114.24Q119.14 113.9 119.14 113.47Q119.16 113.03 119.63 112.56L121.45 110.74L121.33 110.63Q121.24 110.54 121.26 110.43Q121.29 110.33 121.43 110.18L121.53 110.09Q121.68 109.94 121.78 109.92Q121.89 109.9 121.98 109.99L122.09 110.1L122.8 109.56Q123 109.39 123.27 109.67L123.43 109.82Q123.7 110.09 123.52 110.28L122.89 110.9L123.19 111.2Q123.28 111.29 123.25 111.39Q123.24 111.5 123.09 111.65L122.99 111.74Q122.85 111.89 122.74 111.91Q122.64 111.93 122.55 111.84L122.25 111.55L120.45 113.35Q120.3 113.5 120.27 113.61Q120.26 113.73 120.35 113.82Q120.4 113.87 120.47 113.91Q120.54 113.96 120.56 113.98Q120.63 114.05 120.52 114.26Q120.42 114.47 120.33 114.56Q120.19 114.7 119.94 114.57Q119.69 114.45 119.49 114.24Z"/>
</svg>
