<svg version="1.2" baseProfile="tiny-ps" xmlns="http://www.w3.org/2000/svg" viewBox="0 0 196 89" width="196" height="89">
	<path fill="#fff" stroke="#000" id="a" d="M0 0L0 73.4C0 73.4 6.05 86.8 11.72 88.01C16.54 83.17 33.02 66.78 33.02 66.78L33.02 0L0 0Z" />
	<path fill="#fff" stroke="#000" id="b" d="M54.77 0L55.07 44.77C55.07 44.77 81.82 17.91 85.03 14.7C82.05 14.42 81.21 11.25 81.21 11.25L80.93 0L54.77 0Z" />
	<path fill="#fff" stroke="#000" id="c" d="M140.58 0.03L140.28 44.8C140.28 44.8 113.53 17.94 110.32 14.73C113.3 14.45 114.14 11.28 114.14 11.28L114.42 0.03L140.58 0.03Z" />
	<path fill="#fff" stroke="#000" id="d" d="M195.35 0.03L195.35 73.43C195.35 73.43 189.3 86.83 183.63 88.04C178.81 83.2 162.33 66.81 162.33 66.81L162.33 0.03L195.35 0.03Z" />	
	<path fill="#000000" d="M175.96 31Q175.6 31 175.44 30.84Q175.28 30.66 175.28 30.26L175.28 17.74Q175.28 17.34 175.44 17.18Q175.6 17 175.96 17L179.6 17Q182.14 17 183.4 18.72Q184.66 20.42 184.66 24Q184.66 27.58 183.4 29.3Q182.14 31 179.6 31L175.96 31ZM177.98 28.76L179.52 28.76Q180.74 28.76 181.34 27.66Q181.94 26.54 181.94 24Q181.94 21.46 181.34 20.36Q180.74 19.24 179.52 19.24L177.98 19.24L177.98 28.76Z" />
	<path fill="#000000" d="M129.12 19.14Q126.36 19.14 125.08 17.42Q123.82 15.68 123.82 11.98Q123.82 8.38 125.14 6.62Q126.46 4.86 129.18 4.86Q130.28 4.86 131.02 5.12Q131.32 5.22 131.44 5.42Q131.56 5.62 131.54 5.94Q131.54 6.54 131.3 7.08Q131.08 7.6 130.72 7.44Q130.04 7.16 129.28 7.16Q127.9 7.16 127.22 8.36Q126.56 9.54 126.56 11.98Q126.56 14.44 127.22 15.64Q127.9 16.82 129.34 16.82Q129.78 16.82 130.1 16.74Q130.44 16.66 130.86 16.52Q130.98 16.48 131.04 16.48Q131.38 16.48 131.56 16.94Q131.74 17.38 131.74 18.02Q131.74 18.3 131.62 18.5Q131.52 18.68 131.2 18.8Q130.86 18.94 130.3 19.04Q129.74 19.14 129.12 19.14Z" />
	<path fill="#000000" d="M63.96 19Q63.6 19 63.44 18.84Q63.28 18.66 63.28 18.26L63.28 5.72Q63.28 5.34 63.44 5.18Q63.6 5 63.96 5L67.5 5Q69.56 5 70.56 5.9Q71.56 6.8 71.56 8.44Q71.56 9.56 71.06 10.4Q70.56 11.24 69.76 11.64L69.76 11.72Q70.68 12 71.32 12.84Q71.98 13.66 71.98 15.04Q71.98 16.92 70.86 17.96Q69.74 19 67.54 19L63.96 19ZM65.84 10.82L67.46 10.82Q68.2 10.82 68.6 10.32Q69 9.82 69 8.9Q69 7.94 68.62 7.52Q68.26 7.1 67.48 7.1L65.84 7.1L65.84 10.82ZM65.84 16.9L67.74 16.9Q69.38 16.9 69.38 14.82Q69.38 13.84 68.94 13.38Q68.52 12.9 67.64 12.9L65.84 12.9L65.84 16.9Z" />
	<path fill="#000000" d="M11 30.04Q10.12 30.04 10.12 29.64Q10.12 29.58 10.16 29.3L13.44 16.46Q13.56 15.96 14.52 15.96L15.58 15.96Q16.54 15.96 16.68 16.46L19.94 29.3Q19.98 29.58 19.98 29.64Q19.98 30.04 19.16 30.04L18.36 30.04Q17.5 30.04 17.42 29.66L16.78 26.92L13.3 26.92L12.66 29.66Q12.58 30.04 11.8 30.04L11 30.04ZM13.68 24.8L16.4 24.8L15.32 20.14Q15.18 19.5 15.08 18.72L14.98 18.72Q14.88 19.5 14.74 20.14L13.68 24.8Z" />
</svg>