<svg xmlns="http://www.w3.org/2000/svg" width="155" height="155">
    <path fill="#fff" stroke="#000" id="a-in" d="M154.25 89.31v42.33c-19.46.16-30.99-8.68-34.66-12.04 3.36 3.68 12.2 15.21 12.04 34.66H89.3L58.5 58.52l95.75 30.79z"/>
    <path fill="#fff" stroke="#000" id="c-out" d="M77.36 77.39S22.24 135.14.58 132.05a3409.7 3409.7 0 0 1-.02-42.96c11.71 2.61 48.8-36.56 50.33-38.17"/>
    <path fill="#fff" stroke="#000" id="c-in" d="M50.84 50.88S91.74 12.45 89.07.5l42.96.02c3.82 21.12-54.66 76.78-54.66 76.78"/>
    <path fill="#fff" stroke="#000" id="b-out" d="M113.8 93.51c-11.92 12.26-49.83 52.77-48.04 60.77a3409.5 3409.5 0 0 1-42.96-.02c-.81-25.39 54.56-76.87 54.56-76.87"/>
    <path fill="#fff" stroke="#000" id="b-in" d="M77.36 77.38s57.21-59.81 76.89-54.67a3409.7 3409.7 0 0 1 .02 42.96c-8.07-1.8-28.21 16.26-40.44 28.18"/>
    <path fill="#fff" stroke="#000" id="d-out" d="M23.91 23.84S16.36 14.12 22.78.59c8.67.22 42.17 0 42.17 0l-20.1 44.2-44.2 20.1V22.72c13.55-6.43 23.26 1.12 23.26 1.12z"/>
    <path fill="#fff" stroke="#000" id="d-in" d="M93.98 114.77l19.66-21.13M62.91 26.61l91.33 41.26v29.6c-22.82 11.83-79.08-22.3-79.08-22.3s34.13 56.25 22.3 79.08h-29.6L26.6 62.92l18.15-18.15 18.16-18.16z"/>
    <path fill="#fff" stroke="#000" id="a-out" d="M56.6.61h8.37L89.18.5c6.16 6.77 1.99 24.01 1.99 24.01L57.89 57.83 24.57 91.1S7.34 95.28.56 89.11L.67 64.9v-8.37l27.96-27.96L56.6.61z"/>

    <path fill="#000000" d="M104.4 109.09Q104.12 108.81 104.25 108.68Q104.27 108.67 104.37 108.59L109.5 105.55Q109.69 105.43 110 105.73L110.34 106.07Q110.64 106.37 110.53 106.58L107.48 111.7Q107.4 111.8 107.38 111.82Q107.26 111.95 107 111.69L106.74 111.43Q106.47 111.16 106.56 111.01L107.23 109.94L106.12 108.83L105.05 109.5Q104.9 109.59 104.65 109.35L104.4 109.09ZM106.92 108.28L107.78 109.14L108.92 107.32Q109.08 107.07 109.3 106.79L109.27 106.76Q108.99 106.97 108.74 107.13L106.92 108.28ZM104.23 108.92Q103.95 108.64 104.08 108.52Q104.1 108.5 104.2 108.42L109.33 105.38Q109.53 105.26 109.83 105.56L110.17 105.9Q110.47 106.21 110.36 106.41L107.31 111.53Q107.24 111.63 107.22 111.65Q107.09 111.78 106.83 111.52L106.57 111.27Q106.3 110.99 106.4 110.85L107.06 109.77L105.96 108.66L104.88 109.33Q104.73 109.43 104.49 109.18L104.23 108.92ZM106.75 108.11L107.62 108.97L108.76 107.15Q108.92 106.9 109.13 106.62L109.1 106.59Q108.82 106.8 108.57 106.96L106.75 108.11ZM109.16 111.05Q109.07 110.96 109.1 110.86Q109.13 110.75 109.27 110.61L109.32 110.56Q109.46 110.42 109.57 110.39Q109.67 110.36 109.76 110.45L110.79 111.48Q110.88 111.57 110.85 111.68Q110.83 111.78 110.68 111.92L110.63 111.97Q110.49 112.11 110.38 112.15Q110.28 112.17 110.19 112.08L109.16 111.05ZM108.99 110.88Q108.9 110.79 108.93 110.69Q108.96 110.58 109.1 110.44L109.15 110.39Q109.3 110.25 109.4 110.22Q109.5 110.2 109.59 110.29L110.62 111.32Q110.71 111.41 110.68 111.51Q110.66 111.61 110.51 111.76L110.46 111.81Q110.32 111.95 110.21 111.98Q110.11 112 110.02 111.91L108.99 110.88ZM109.98 114.69Q109.66 114.36 109.85 114.17L113.96 110.06Q114.15 109.87 114.47 110.19L114.68 110.4Q115 110.72 114.81 110.91L110.7 115.02Q110.51 115.21 110.19 114.9L109.98 114.69ZM109.81 114.52Q109.49 114.19 109.68 114L113.79 109.89Q113.98 109.7 114.31 110.02L114.52 110.23Q114.83 110.55 114.64 110.74L110.53 114.85Q110.34 115.05 110.02 114.73L109.81 114.52ZM111.79 116.49Q111.48 116.17 111.66 115.98L113.76 113.88Q114.2 113.44 114.36 113.22Q114.52 113 114.55 112.97Q114.65 112.87 114.91 113.04Q115.19 113.21 115.35 113.37Q115.46 113.48 115.42 113.6Q115.39 113.71 115.29 113.83Q115.21 113.95 115.15 114.03Q115.5 113.96 115.85 114.04Q116.2 114.12 116.45 114.37Q116.82 114.74 116.78 115.17Q116.73 115.6 116.28 116.05L114 118.33Q113.82 118.51 113.49 118.19L113.33 118.03Q113 117.7 113.19 117.51L115.31 115.39Q115.52 115.18 115.54 115Q115.57 114.83 115.41 114.67Q115.29 114.55 115.1 114.52Q114.91 114.49 114.72 114.55L112.47 116.79Q112.37 116.89 112.25 116.85Q112.12 116.82 111.96 116.65L111.79 116.49ZM111.63 116.32Q111.31 116 111.49 115.82L113.59 113.72Q114.03 113.28 114.19 113.05Q114.35 112.83 114.38 112.8Q114.48 112.7 114.74 112.87Q115.02 113.04 115.18 113.21Q115.29 113.31 115.25 113.43Q115.22 113.54 115.13 113.66Q115.04 113.79 114.99 113.86Q115.34 113.79 115.68 113.87Q116.03 113.95 116.28 114.21Q116.65 114.57 116.61 115Q116.56 115.43 116.11 115.88L113.83 118.16Q113.65 118.34 113.33 118.02L113.17 117.86Q112.84 117.53 113.02 117.34L115.14 115.22Q115.35 115.01 115.37 114.84Q115.41 114.66 115.24 114.5Q115.12 114.38 114.93 114.35Q114.74 114.32 114.55 114.38L112.3 116.62Q112.21 116.72 112.08 116.68Q111.96 116.65 111.79 116.48L111.63 116.32Z"/>
    <path fill="#000000" d="M106.72 71.38Q106.6 71.27 106.6 71.17Q106.61 71.06 106.74 70.93L110.72 66.95Q110.85 66.82 110.95 66.82Q111.06 66.81 111.17 66.93L112.33 68.09Q113.14 68.9 112.99 69.84Q112.85 70.79 111.71 71.93Q110.57 73.06 109.63 73.21Q108.68 73.35 107.88 72.54L106.72 71.38ZM108.07 71.31L108.56 71.8Q108.95 72.19 109.49 72.03Q110.04 71.87 110.85 71.06Q111.66 70.25 111.81 69.71Q111.98 69.16 111.59 68.77L111.1 68.28L108.07 71.31ZM106.55 71.22Q106.43 71.1 106.43 71Q106.44 70.89 106.57 70.76L110.55 66.78Q110.68 66.65 110.78 66.65Q110.89 66.65 111 66.76L112.16 67.92Q112.97 68.73 112.82 69.68Q112.68 70.62 111.55 71.76Q110.41 72.9 109.46 73.04Q108.52 73.18 107.71 72.37L106.55 71.22ZM107.9 71.15L108.4 71.64Q108.78 72.02 109.32 71.87Q109.87 71.7 110.68 70.89Q111.49 70.08 111.65 69.54Q111.81 69 111.42 68.61L110.93 68.12L107.9 71.15ZM111.6 73.49Q111.51 73.4 111.53 73.3Q111.57 73.19 111.71 73.05L111.76 73Q111.9 72.85 112.01 72.83Q112.11 72.8 112.2 72.89L113.23 73.92Q113.32 74.01 113.29 74.11Q113.27 74.22 113.12 74.36L113.07 74.41Q112.93 74.55 112.82 74.59Q112.72 74.61 112.63 74.52L111.6 73.49ZM111.43 73.32Q111.34 73.23 111.37 73.13Q111.4 73.02 111.54 72.88L111.59 72.83Q111.74 72.69 111.84 72.66Q111.94 72.64 112.03 72.72L113.06 73.76Q113.15 73.84 113.12 73.95Q113.1 74.05 112.95 74.19L112.9 74.25Q112.76 74.39 112.65 74.42Q112.55 74.44 112.46 74.35L111.43 73.32ZM112.42 77.12Q112.09 76.8 112.29 76.61L116.4 72.5Q116.59 72.31 116.91 72.63L117.12 72.84Q117.44 73.16 117.25 73.35L113.14 77.46Q112.95 77.65 112.63 77.33L112.42 77.12ZM112.25 76.96Q111.93 76.63 112.12 76.44L116.23 72.33Q116.42 72.14 116.74 72.46L116.95 72.67Q117.27 72.99 117.08 73.18L112.97 77.29Q112.78 77.48 112.46 77.17L112.25 76.96ZM114.23 78.93Q113.91 78.61 114.1 78.42L116.2 76.32Q116.64 75.88 116.8 75.66Q116.96 75.44 116.99 75.41Q117.09 75.3 117.35 75.48Q117.63 75.65 117.79 75.81Q117.9 75.92 117.86 76.04Q117.83 76.14 117.73 76.27Q117.64 76.39 117.59 76.47Q117.94 76.4 118.29 76.48Q118.64 76.56 118.89 76.81Q119.26 77.18 119.22 77.61Q119.17 78.03 118.72 78.49L116.44 80.76Q116.26 80.95 115.93 80.62L115.77 80.47Q115.44 80.13 115.63 79.95L117.75 77.83Q117.96 77.62 117.98 77.44Q118.01 77.27 117.85 77.11Q117.73 76.98 117.54 76.96Q117.35 76.93 117.15 76.98L114.91 79.23Q114.81 79.33 114.68 79.29Q114.56 79.26 114.4 79.09L114.23 78.93ZM114.07 78.76Q113.75 78.44 113.93 78.25L116.03 76.15Q116.47 75.72 116.63 75.49Q116.79 75.27 116.82 75.24Q116.92 75.14 117.18 75.31Q117.46 75.48 117.62 75.65Q117.73 75.75 117.69 75.87Q117.66 75.98 117.57 76.1Q117.48 76.22 117.43 76.3Q117.78 76.23 118.12 76.31Q118.47 76.39 118.72 76.64Q119.09 77.01 119.05 77.44Q119 77.87 118.55 78.32L116.27 80.6Q116.09 80.78 115.76 80.46L115.61 80.3Q115.27 79.97 115.46 79.78L117.58 77.66Q117.79 77.45 117.81 77.27Q117.85 77.1 117.68 76.94Q117.56 76.82 117.37 76.79Q117.18 76.76 116.99 76.82L114.74 79.06Q114.64 79.16 114.52 79.12Q114.4 79.09 114.23 78.92L114.07 78.76Z"/>
    <path fill="#000000" d="M103 13.75Q102.12 12.87 102.26 11.92Q102.41 10.97 103.59 9.79Q104.73 8.64 105.71 8.5Q106.69 8.36 107.56 9.23Q107.91 9.58 108.06 9.9Q108.13 10.02 108.1 10.12Q108.07 10.23 107.97 10.32Q107.78 10.51 107.53 10.61Q107.29 10.7 107.23 10.54Q107.1 10.23 106.86 9.99Q106.42 9.55 105.82 9.72Q105.24 9.88 104.46 10.66Q103.68 11.44 103.51 12.03Q103.35 12.63 103.8 13.08Q103.94 13.22 104.07 13.3Q104.21 13.38 104.38 13.47Q104.43 13.5 104.45 13.52Q104.56 13.63 104.47 13.83Q104.39 14.03 104.19 14.23Q104.1 14.32 104 14.34Q103.91 14.37 103.77 14.31Q103.61 14.24 103.4 14.1Q103.19 13.95 103 13.75ZM102.83 13.58Q101.95 12.71 102.09 11.75Q102.24 10.8 103.42 9.62Q104.57 8.47 105.55 8.33Q106.53 8.19 107.39 9.06Q107.74 9.41 107.89 9.73Q107.96 9.86 107.93 9.96Q107.91 10.06 107.8 10.15Q107.61 10.35 107.36 10.44Q107.12 10.54 107.06 10.37Q106.93 10.07 106.69 9.82Q106.25 9.38 105.65 9.55Q105.07 9.72 104.29 10.49Q103.51 11.27 103.34 11.87Q103.18 12.46 103.64 12.92Q103.78 13.06 103.9 13.13Q104.04 13.22 104.22 13.3Q104.27 13.33 104.29 13.35Q104.39 13.46 104.31 13.66Q104.22 13.86 104.02 14.06Q103.93 14.15 103.83 14.18Q103.74 14.2 103.6 14.14Q103.45 14.07 103.24 13.93Q103.03 13.78 102.83 13.58ZM105.87 13.76Q105.78 13.67 105.8 13.57Q105.83 13.46 105.97 13.32L106.03 13.27Q106.17 13.12 106.27 13.1Q106.38 13.07 106.46 13.16L107.5 14.19Q107.58 14.28 107.56 14.38Q107.53 14.48 107.39 14.63L107.34 14.68Q107.2 14.82 107.09 14.85Q106.99 14.88 106.9 14.79L105.87 13.76ZM105.7 13.59Q105.61 13.5 105.64 13.4Q105.67 13.29 105.81 13.15L105.86 13.1Q106 12.95 106.11 12.93Q106.21 12.9 106.3 12.99L107.33 14.02Q107.42 14.11 107.39 14.21Q107.37 14.32 107.22 14.46L107.17 14.51Q107.03 14.65 106.92 14.69Q106.82 14.71 106.73 14.62L105.7 13.59ZM106.69 17.39Q106.36 17.07 106.55 16.88L110.66 12.77Q110.86 12.58 111.18 12.9L111.39 13.11Q111.71 13.43 111.52 13.62L107.41 17.73Q107.22 17.92 106.9 17.6L106.69 17.39ZM106.52 17.22Q106.2 16.9 106.39 16.71L110.5 12.6Q110.69 12.41 111.01 12.73L111.22 12.94Q111.54 13.26 111.35 13.45L107.24 17.56Q107.05 17.75 106.73 17.43L106.52 17.22ZM108.5 19.19Q108.18 18.88 108.37 18.69L110.47 16.59Q110.91 16.15 111.07 15.93Q111.23 15.71 111.26 15.67Q111.36 15.57 111.62 15.74Q111.89 15.92 112.06 16.08Q112.17 16.19 112.13 16.3Q112.1 16.41 112 16.53Q111.91 16.66 111.86 16.74Q112.21 16.67 112.56 16.74Q112.91 16.83 113.16 17.08Q113.53 17.45 113.48 17.88Q113.44 18.3 112.99 18.75L110.71 21.03Q110.52 21.22 110.2 20.89L110.04 20.73Q109.71 20.4 109.89 20.22L112.01 18.1Q112.22 17.89 112.25 17.71Q112.28 17.54 112.12 17.37Q112 17.25 111.8 17.23Q111.62 17.2 111.42 17.25L109.18 19.5Q109.08 19.59 108.95 19.56Q108.83 19.52 108.67 19.36L108.5 19.19ZM108.33 19.03Q108.02 18.71 108.2 18.52L110.3 16.42Q110.74 15.98 110.9 15.76Q111.06 15.54 111.09 15.51Q111.19 15.4 111.45 15.58Q111.73 15.75 111.89 15.91Q112 16.02 111.96 16.14Q111.93 16.24 111.83 16.37Q111.74 16.49 111.69 16.57Q112.04 16.5 112.39 16.58Q112.74 16.66 112.99 16.91Q113.36 17.28 113.32 17.71Q113.27 18.13 112.82 18.59L110.54 20.86Q110.36 21.05 110.03 20.72L109.87 20.57Q109.54 20.23 109.73 20.05L111.85 17.93Q112.06 17.72 112.08 17.54Q112.11 17.37 111.95 17.21Q111.83 17.08 111.64 17.06Q111.45 17.03 111.25 17.08L109.01 19.33Q108.91 19.43 108.79 19.39Q108.66 19.36 108.5 19.19L108.33 19.03Z"/>
    <path fill="#000000" d="M36.72 135.38Q36.6 135.27 36.6 135.17Q36.61 135.06 36.74 134.93L40.73 130.94Q40.85 130.82 40.95 130.82Q41.06 130.81 41.17 130.93L42.3 132.06Q42.95 132.71 42.99 133.32Q43.02 133.92 42.5 134.44Q42.14 134.8 41.71 134.91Q41.29 135.02 40.9 134.89L40.88 134.91Q41.08 135.3 41.02 135.77Q40.97 136.24 40.53 136.68Q39.93 137.27 39.24 137.25Q38.56 137.22 37.86 136.52L36.72 135.38ZM39.92 133.38L40.43 133.89Q40.67 134.13 40.96 134.1Q41.24 134.07 41.53 133.77Q41.84 133.47 41.85 133.21Q41.87 132.97 41.62 132.72L41.1 132.2L39.92 133.38ZM37.98 135.31L38.59 135.92Q39.11 136.44 39.77 135.78Q40.08 135.47 40.09 135.18Q40.11 134.89 39.83 134.61L39.26 134.04L37.98 135.31ZM36.55 135.22Q36.43 135.1 36.43 135Q36.44 134.89 36.57 134.76L40.56 130.77Q40.68 130.65 40.78 130.65Q40.89 130.65 41 130.76L42.13 131.89Q42.79 132.54 42.82 133.15Q42.85 133.75 42.33 134.27Q41.97 134.63 41.55 134.74Q41.12 134.85 40.74 134.72L40.71 134.75Q40.92 135.13 40.85 135.6Q40.8 136.07 40.36 136.51Q39.76 137.11 39.08 137.08Q38.39 137.06 37.69 136.36L36.55 135.22ZM39.75 133.21L40.27 133.73Q40.5 133.96 40.79 133.93Q41.07 133.9 41.37 133.61Q41.67 133.3 41.69 133.05Q41.7 132.8 41.46 132.55L40.93 132.03L39.75 133.21ZM37.82 135.15L38.42 135.75Q38.94 136.27 39.6 135.61Q39.92 135.3 39.92 135.01Q39.94 134.73 39.66 134.45L39.09 133.87L37.82 135.15ZM41.38 137.27Q41.29 137.18 41.31 137.08Q41.34 136.97 41.48 136.83L41.53 136.78Q41.68 136.63 41.78 136.61Q41.88 136.58 41.97 136.67L43 137.7Q43.09 137.79 43.07 137.89Q43.04 137.99 42.9 138.14L42.85 138.19Q42.71 138.33 42.6 138.36Q42.5 138.39 42.41 138.3L41.38 137.27ZM41.21 137.1Q41.12 137.01 41.14 136.91Q41.18 136.8 41.32 136.66L41.37 136.61Q41.51 136.46 41.62 136.44Q41.72 136.41 41.81 136.5L42.84 137.53Q42.93 137.62 42.9 137.72Q42.88 137.83 42.73 137.97L42.68 138.02Q42.54 138.16 42.43 138.19Q42.33 138.22 42.24 138.13L41.21 137.1ZM43.35 142.1Q41.71 140.46 43.98 138.18Q46.25 135.92 47.89 137.56Q49.53 139.2 47.26 141.46Q44.98 143.74 43.35 142.1ZM44.07 141.4Q44.46 141.79 45 141.62Q45.56 141.45 46.4 140.6Q47.25 139.76 47.41 139.22Q47.58 138.67 47.19 138.28Q46.79 137.88 46.24 138.04Q45.7 138.2 44.85 139.05Q44 139.9 43.83 140.45Q43.67 141 44.07 141.4ZM43.18 141.94Q41.54 140.29 43.82 138.02Q46.08 135.75 47.72 137.39Q49.36 139.03 47.09 141.29Q44.82 143.57 43.18 141.94ZM43.9 141.23Q44.29 141.62 44.84 141.45Q45.39 141.28 46.24 140.43Q47.08 139.59 47.24 139.05Q47.41 138.51 47.02 138.11Q46.62 137.71 46.07 137.88Q45.53 138.04 44.68 138.88Q43.84 139.73 43.66 140.28Q43.5 140.83 43.9 141.23ZM46.53 145.3Q46.16 144.92 46.19 144.5Q46.23 144.06 46.66 143.63L48.97 141.32Q49.15 141.14 49.48 141.46L49.64 141.62Q49.81 141.79 49.84 141.91Q49.87 142.03 49.78 142.13L47.63 144.27Q47.43 144.47 47.4 144.64Q47.38 144.82 47.55 144.98Q47.68 145.11 47.86 145.14Q48.05 145.17 48.25 145.11L50.5 142.86Q50.69 142.67 51.01 143L51.18 143.16Q51.49 143.48 51.31 143.66L49.2 145.77Q48.77 146.2 48.61 146.43Q48.45 146.65 48.41 146.69Q48.31 146.79 48.05 146.62Q47.78 146.45 47.61 146.28Q47.5 146.17 47.54 146.06Q47.57 145.95 47.66 145.82Q47.76 145.7 47.81 145.62Q47.46 145.69 47.12 145.62Q46.79 145.55 46.53 145.3ZM46.36 145.13Q45.99 144.76 46.02 144.33Q46.06 143.9 46.49 143.46L48.8 141.15Q48.98 140.97 49.31 141.29L49.47 141.45Q49.64 141.62 49.67 141.75Q49.7 141.87 49.61 141.96L47.46 144.11Q47.27 144.3 47.23 144.48Q47.22 144.65 47.38 144.81Q47.51 144.94 47.69 144.97Q47.88 145 48.08 144.94L50.33 142.69Q50.52 142.5 50.84 142.83L51.01 142.99Q51.33 143.31 51.14 143.5L49.04 145.6Q48.6 146.04 48.44 146.26Q48.28 146.49 48.24 146.53Q48.14 146.63 47.88 146.46Q47.62 146.28 47.44 146.11Q47.34 146 47.37 145.9Q47.41 145.78 47.5 145.65Q47.59 145.53 47.64 145.46Q47.29 145.53 46.95 145.46Q46.62 145.39 46.36 145.13ZM49.87 148.63Q49.53 148.28 49.53 147.85Q49.54 147.42 50.02 146.94L51.83 145.13L51.72 145.01Q51.63 144.92 51.65 144.82Q51.67 144.71 51.82 144.57L51.91 144.47Q52.06 144.33 52.16 144.3Q52.27 144.28 52.36 144.37L52.47 144.48L53.18 143.94Q53.38 143.78 53.66 144.05L53.81 144.2Q54.08 144.48 53.9 144.66L53.28 145.29L53.58 145.59Q53.66 145.67 53.64 145.78Q53.62 145.88 53.47 146.03L53.38 146.13Q53.23 146.27 53.12 146.29Q53.02 146.32 52.93 146.23L52.63 145.93L50.83 147.73Q50.68 147.88 50.65 148Q50.64 148.11 50.73 148.2Q50.78 148.25 50.85 148.3Q50.92 148.34 50.95 148.37Q51.02 148.44 50.91 148.65Q50.8 148.86 50.72 148.94Q50.58 149.08 50.32 148.95Q50.08 148.83 49.87 148.63ZM49.7 148.46Q49.36 148.12 49.36 147.68Q49.37 147.25 49.85 146.77L51.66 144.96L51.55 144.85Q51.46 144.76 51.48 144.65Q51.5 144.55 51.65 144.4L51.75 144.3Q51.89 144.16 51.99 144.13Q52.1 144.11 52.19 144.2L52.31 144.32L53.01 143.78Q53.22 143.61 53.49 143.88L53.64 144.04Q53.92 144.31 53.73 144.5L53.11 145.12L53.41 145.42Q53.5 145.51 53.47 145.61Q53.45 145.72 53.31 145.86L53.21 145.96Q53.06 146.11 52.96 146.12Q52.85 146.15 52.76 146.06L52.47 145.76L50.66 147.56Q50.51 147.72 50.49 147.83Q50.47 147.94 50.56 148.03Q50.61 148.08 50.68 148.13Q50.75 148.17 50.78 148.2Q50.85 148.27 50.74 148.48Q50.63 148.69 50.55 148.77Q50.41 148.91 50.16 148.78Q49.91 148.66 49.7 148.46Z"/>
    <path fill="#000000" d="M9 103.75Q8.12 102.87 8.26 101.92Q8.41 100.97 9.59 99.79Q10.73 98.64 11.71 98.5Q12.69 98.36 13.56 99.23Q13.91 99.58 14.06 99.9Q14.13 100.02 14.1 100.12Q14.07 100.23 13.97 100.32Q13.78 100.51 13.53 100.61Q13.29 100.7 13.23 100.54Q13.1 100.23 12.86 99.99Q12.42 99.55 11.82 99.72Q11.24 99.88 10.46 100.66Q9.68 101.44 9.51 102.03Q9.35 102.63 9.8 103.08Q9.94 103.22 10.07 103.3Q10.21 103.38 10.38 103.47Q10.43 103.5 10.45 103.52Q10.56 103.63 10.47 103.83Q10.39 104.03 10.19 104.23Q10.1 104.32 10 104.34Q9.91 104.37 9.77 104.31Q9.61 104.24 9.4 104.1Q9.19 103.95 9 103.75ZM8.83 103.58Q7.95 102.71 8.09 101.75Q8.24 100.8 9.42 99.62Q10.57 98.47 11.55 98.33Q12.53 98.19 13.39 99.06Q13.74 99.41 13.89 99.73Q13.96 99.86 13.93 99.96Q13.91 100.06 13.8 100.15Q13.61 100.35 13.36 100.44Q13.12 100.54 13.06 100.37Q12.93 100.07 12.69 99.82Q12.25 99.38 11.65 99.55Q11.07 99.72 10.29 100.49Q9.51 101.27 9.34 101.87Q9.18 102.46 9.64 102.92Q9.78 103.06 9.9 103.13Q10.04 103.22 10.22 103.3Q10.27 103.33 10.29 103.35Q10.39 103.46 10.31 103.66Q10.22 103.86 10.02 104.06Q9.93 104.15 9.83 104.18Q9.74 104.2 9.6 104.14Q9.45 104.07 9.24 103.93Q9.03 103.78 8.83 103.58ZM11.87 103.76Q11.78 103.67 11.8 103.57Q11.83 103.46 11.97 103.32L12.03 103.27Q12.17 103.12 12.27 103.1Q12.38 103.07 12.46 103.16L13.5 104.19Q13.58 104.28 13.56 104.38Q13.53 104.48 13.39 104.63L13.34 104.68Q13.2 104.82 13.09 104.85Q12.99 104.88 12.9 104.79L11.87 103.76ZM11.7 103.59Q11.61 103.5 11.64 103.4Q11.67 103.29 11.81 103.15L11.86 103.1Q12 102.95 12.11 102.93Q12.21 102.9 12.3 102.99L13.33 104.02Q13.42 104.11 13.39 104.21Q13.37 104.32 13.22 104.46L13.17 104.51Q13.03 104.65 12.92 104.69Q12.82 104.71 12.73 104.62L11.7 103.59ZM13.84 108.6Q12.2 106.95 14.48 104.68Q16.74 102.41 18.38 104.05Q20.02 105.69 17.75 107.95Q15.47 110.23 13.84 108.6ZM14.56 107.89Q14.95 108.28 15.49 108.11Q16.05 107.94 16.89 107.09Q17.74 106.25 17.9 105.71Q18.07 105.17 17.68 104.77Q17.28 104.37 16.73 104.54Q16.19 104.69 15.34 105.54Q14.49 106.39 14.32 106.94Q14.16 107.49 14.56 107.89ZM13.67 108.43Q12.03 106.79 14.31 104.51Q16.57 102.24 18.22 103.88Q19.85 105.52 17.59 107.78Q15.31 110.06 13.67 108.43ZM14.39 107.72Q14.78 108.11 15.33 107.94Q15.88 107.77 16.73 106.93Q17.57 106.08 17.73 105.54Q17.9 105 17.51 104.6Q17.11 104.2 16.56 104.37Q16.02 104.53 15.17 105.37Q14.33 106.22 14.16 106.77Q13.99 107.32 14.39 107.72ZM17.02 111.79Q16.65 111.41 16.68 110.99Q16.72 110.56 17.15 110.12L19.46 107.81Q19.64 107.63 19.97 107.95L20.13 108.11Q20.3 108.28 20.33 108.4Q20.36 108.53 20.27 108.62L18.12 110.77Q17.93 110.96 17.89 111.13Q17.87 111.31 18.04 111.47Q18.17 111.6 18.35 111.63Q18.54 111.66 18.74 111.6L20.99 109.35Q21.18 109.16 21.5 109.49L21.67 109.65Q21.99 109.97 21.8 110.15L19.69 112.26Q19.26 112.69 19.1 112.92Q18.94 113.15 18.9 113.18Q18.8 113.29 18.54 113.11Q18.28 112.94 18.1 112.77Q18 112.66 18.03 112.55Q18.07 112.44 18.15 112.31Q18.25 112.19 18.3 112.11Q17.95 112.18 17.61 112.11Q17.28 112.04 17.02 111.79ZM16.85 111.62Q16.48 111.25 16.51 110.82Q16.55 110.39 16.98 109.95L19.29 107.64Q19.48 107.46 19.8 107.78L19.96 107.94Q20.13 108.12 20.16 108.24Q20.19 108.36 20.1 108.45L17.95 110.6Q17.76 110.79 17.73 110.97Q17.71 111.14 17.87 111.3Q18 111.43 18.18 111.46Q18.37 111.49 18.57 111.43L20.82 109.18Q21.01 108.99 21.33 109.32L21.5 109.48Q21.82 109.8 21.63 109.99L19.53 112.09Q19.09 112.53 18.93 112.76Q18.77 112.98 18.73 113.02Q18.63 113.12 18.37 112.95Q18.11 112.77 17.94 112.6Q17.83 112.49 17.86 112.39Q17.9 112.27 17.99 112.14Q18.08 112.02 18.13 111.95Q17.78 112.02 17.45 111.95Q17.11 111.88 16.85 111.62ZM20.36 115.12Q20.02 114.77 20.02 114.34Q20.03 113.91 20.51 113.43L22.32 111.62L22.21 111.5Q22.12 111.41 22.14 111.31Q22.16 111.2 22.31 111.06L22.41 110.96Q22.55 110.82 22.65 110.79Q22.76 110.77 22.85 110.86L22.97 110.98L23.67 110.43Q23.88 110.27 24.15 110.54L24.3 110.7Q24.58 110.97 24.39 111.15L23.77 111.78L24.07 112.08Q24.16 112.17 24.13 112.27Q24.11 112.38 23.96 112.52L23.87 112.62Q23.72 112.76 23.61 112.78Q23.51 112.81 23.42 112.72L23.12 112.42L21.32 114.22Q21.17 114.37 21.15 114.49Q21.13 114.6 21.22 114.69Q21.27 114.74 21.34 114.79Q21.41 114.83 21.44 114.86Q21.51 114.93 21.4 115.14Q21.29 115.35 21.21 115.43Q21.07 115.57 20.81 115.44Q20.57 115.32 20.36 115.12ZM20.19 114.95Q19.85 114.61 19.85 114.17Q19.86 113.74 20.34 113.26L22.15 111.45L22.04 111.34Q21.95 111.25 21.97 111.14Q22 111.04 22.14 110.89L22.24 110.79Q22.38 110.65 22.49 110.62Q22.59 110.6 22.68 110.69L22.8 110.81L23.5 110.27Q23.71 110.1 23.98 110.37L24.13 110.53Q24.41 110.8 24.22 110.99L23.6 111.61L23.9 111.91Q23.99 112 23.96 112.1Q23.94 112.21 23.8 112.35L23.7 112.45Q23.55 112.6 23.45 112.62Q23.34 112.64 23.26 112.55L22.96 112.25L21.16 114.05Q21 114.21 20.98 114.32Q20.96 114.44 21.05 114.52Q21.1 114.58 21.17 114.62Q21.24 114.66 21.27 114.69Q21.34 114.76 21.23 114.97Q21.12 115.18 21.04 115.26Q20.9 115.4 20.65 115.28Q20.4 115.15 20.19 114.95Z"/>
    <path fill="#000000" d="M133.72 39.38Q133.6 39.27 133.6 39.17Q133.61 39.06 133.74 38.93L137.73 34.94Q137.85 34.82 137.95 34.82Q138.06 34.81 138.17 34.93L139.3 36.06Q139.95 36.71 139.99 37.32Q140.02 37.92 139.5 38.44Q139.14 38.8 138.71 38.91Q138.29 39.02 137.9 38.89L137.88 38.91Q138.08 39.3 138.02 39.77Q137.97 40.24 137.53 40.68Q136.93 41.27 136.24 41.25Q135.56 41.22 134.86 40.52L133.72 39.38ZM136.92 37.38L137.43 37.89Q137.67 38.13 137.96 38.1Q138.24 38.07 138.53 37.77Q138.84 37.47 138.85 37.21Q138.87 36.97 138.62 36.72L138.1 36.2L136.92 37.38ZM134.98 39.31L135.59 39.92Q136.11 40.44 136.77 39.78Q137.08 39.47 137.09 39.18Q137.11 38.89 136.83 38.61L136.26 38.04L134.98 39.31ZM133.55 39.22Q133.43 39.1 133.43 39Q133.44 38.89 133.57 38.76L137.56 34.77Q137.68 34.65 137.78 34.65Q137.89 34.65 138 34.76L139.13 35.89Q139.79 36.54 139.82 37.15Q139.85 37.75 139.33 38.27Q138.97 38.63 138.55 38.74Q138.12 38.85 137.74 38.72L137.71 38.75Q137.92 39.13 137.85 39.6Q137.8 40.07 137.36 40.51Q136.76 41.11 136.08 41.08Q135.39 41.06 134.69 40.36L133.55 39.22ZM136.75 37.21L137.27 37.73Q137.5 37.96 137.79 37.93Q138.07 37.9 138.37 37.61Q138.67 37.3 138.69 37.05Q138.7 36.8 138.46 36.55L137.93 36.03L136.75 37.21ZM134.82 39.15L135.42 39.75Q135.94 40.27 136.6 39.61Q136.92 39.3 136.92 39.01Q136.94 38.73 136.66 38.45L136.09 37.87L134.82 39.15ZM138.38 41.27Q138.29 41.18 138.31 41.08Q138.34 40.97 138.48 40.83L138.53 40.78Q138.68 40.63 138.78 40.61Q138.88 40.58 138.97 40.67L140 41.7Q140.09 41.79 140.07 41.89Q140.04 41.99 139.9 42.14L139.85 42.19Q139.71 42.33 139.6 42.36Q139.5 42.39 139.41 42.3L138.38 41.27ZM138.21 41.1Q138.12 41.01 138.14 40.91Q138.18 40.8 138.32 40.66L138.37 40.61Q138.51 40.46 138.62 40.44Q138.72 40.41 138.81 40.5L139.84 41.53Q139.93 41.62 139.9 41.72Q139.88 41.83 139.73 41.97L139.68 42.02Q139.54 42.16 139.43 42.19Q139.33 42.22 139.24 42.13L138.21 41.1ZM139.2 44.9Q138.87 44.58 139.06 44.39L143.17 40.28Q143.37 40.08 143.69 40.41L143.9 40.62Q144.22 40.94 144.03 41.13L139.92 45.24Q139.72 45.43 139.41 45.11L139.2 44.9ZM139.03 44.73Q138.7 44.41 138.9 44.22L143.01 40.11Q143.2 39.92 143.52 40.24L143.73 40.45Q144.05 40.77 143.86 40.96L139.75 45.07Q139.56 45.26 139.24 44.94L139.03 44.73ZM141.01 46.7Q140.69 46.38 140.88 46.2L142.98 44.1Q143.42 43.66 143.58 43.44Q143.73 43.22 143.77 43.18Q143.87 43.08 144.13 43.25Q144.4 43.43 144.57 43.59Q144.68 43.7 144.64 43.81Q144.61 43.92 144.51 44.04Q144.42 44.17 144.37 44.25Q144.72 44.18 145.06 44.25Q145.41 44.34 145.67 44.59Q146.04 44.96 145.99 45.39Q145.95 45.81 145.5 46.26L143.22 48.54Q143.03 48.73 142.71 48.4L142.55 48.24Q142.22 47.91 142.4 47.73L144.52 45.61Q144.73 45.4 144.76 45.22Q144.79 45.05 144.63 44.88Q144.5 44.76 144.31 44.74Q144.13 44.7 143.93 44.76L141.68 47.01Q141.59 47.1 141.46 47.07Q141.34 47.03 141.18 46.87L141.01 46.7ZM140.84 46.53Q140.52 46.22 140.71 46.03L142.81 43.93Q143.25 43.49 143.41 43.27Q143.57 43.05 143.6 43.02Q143.7 42.91 143.96 43.09Q144.23 43.26 144.4 43.42Q144.51 43.53 144.47 43.65Q144.44 43.75 144.34 43.87Q144.25 44 144.2 44.08Q144.55 44.01 144.9 44.08Q145.25 44.17 145.5 44.42Q145.87 44.79 145.83 45.22Q145.78 45.64 145.33 46.1L143.05 48.37Q142.87 48.56 142.54 48.23L142.38 48.08Q142.05 47.74 142.24 47.56L144.36 45.44Q144.57 45.23 144.59 45.05Q144.62 44.88 144.46 44.71Q144.34 44.59 144.15 44.57Q143.96 44.54 143.76 44.59L141.52 46.84Q141.42 46.94 141.29 46.9Q141.17 46.87 141.01 46.7L140.84 46.53Z"/>
    <path fill="#000000" d="M2.13 26.81Q2.03 26.71 2.03 26.62Q2.04 26.52 2.15 26.41L5.69 22.87Q5.8 22.75 5.9 22.75Q5.99 22.75 6.09 22.85L7.12 23.88Q7.84 24.6 7.71 25.44Q7.59 26.28 6.57 27.29Q5.56 28.3 4.72 28.43Q3.88 28.56 3.16 27.84L2.13 26.81ZM3.34 26.75L3.77 27.18Q4.12 27.53 4.6 27.39Q5.09 27.24 5.8 26.52Q6.52 25.8 6.66 25.32Q6.81 24.84 6.47 24.49L6.03 24.06L3.34 26.75ZM1.98 26.66Q1.88 26.56 1.88 26.47Q1.89 26.37 2 26.26L5.54 22.72Q5.66 22.61 5.75 22.61Q5.84 22.6 5.94 22.7L6.97 23.73Q7.69 24.45 7.56 25.29Q7.44 26.13 6.43 27.14Q5.41 28.15 4.57 28.28Q3.73 28.41 3.01 27.69L1.98 26.66ZM3.19 26.6L3.62 27.03Q3.97 27.38 4.45 27.24Q4.94 27.09 5.66 26.37Q6.37 25.65 6.52 25.17Q6.66 24.69 6.32 24.34L5.88 23.91L3.19 26.6ZM6.47 28.68Q6.39 28.6 6.42 28.51Q6.44 28.42 6.57 28.29L6.61 28.25Q6.74 28.12 6.83 28.09Q6.92 28.07 7 28.15L7.92 29.07Q8 29.15 7.98 29.24Q7.95 29.33 7.82 29.46L7.78 29.5Q7.65 29.63 7.56 29.66Q7.47 29.68 7.39 29.6L6.47 28.68ZM6.32 28.53Q6.24 28.45 6.27 28.36Q6.29 28.27 6.42 28.14L6.46 28.1Q6.59 27.97 6.69 27.95Q6.78 27.92 6.86 28L7.77 28.92Q7.85 29 7.83 29.09Q7.81 29.18 7.68 29.31L7.63 29.35Q7.51 29.48 7.41 29.51Q7.32 29.53 7.24 29.45L6.32 28.53ZM8.23 32.98Q6.77 31.52 8.79 29.5Q10.81 27.48 12.27 28.94Q13.72 30.4 11.71 32.41Q9.68 34.44 8.23 32.98ZM8.87 32.35Q9.21 32.7 9.7 32.55Q10.19 32.4 10.94 31.65Q11.69 30.89 11.84 30.41Q11.99 29.93 11.64 29.58Q11.28 29.23 10.79 29.37Q10.31 29.51 9.56 30.27Q8.81 31.02 8.66 31.51Q8.51 32 8.87 32.35ZM8.08 32.83Q6.62 31.37 8.64 29.35Q10.66 27.33 12.12 28.79Q13.57 30.25 11.56 32.26Q9.53 34.29 8.08 32.83ZM8.72 32.21Q9.06 32.55 9.55 32.4Q10.04 32.25 10.79 31.5Q11.54 30.75 11.69 30.26Q11.84 29.78 11.49 29.43Q11.13 29.08 10.65 29.22Q10.16 29.37 9.41 30.12Q8.66 30.87 8.51 31.36Q8.36 31.85 8.72 32.21ZM11.05 35.82Q10.72 35.49 10.75 35.11Q10.78 34.72 11.17 34.34L13.22 32.29Q13.39 32.12 13.67 32.41L13.82 32.55Q13.97 32.71 14 32.81Q14.02 32.92 13.94 33L12.03 34.91Q11.86 35.09 11.83 35.24Q11.81 35.39 11.96 35.54Q12.07 35.65 12.24 35.68Q12.41 35.7 12.58 35.65L14.58 33.65Q14.75 33.49 15.04 33.77L15.18 33.92Q15.47 34.2 15.3 34.37L13.43 36.24Q13.05 36.63 12.9 36.83Q12.76 37.03 12.72 37.06Q12.63 37.15 12.4 37Q12.17 36.85 12.02 36.69Q11.92 36.6 11.95 36.5Q11.98 36.4 12.06 36.29Q12.15 36.18 12.19 36.11Q11.88 36.17 11.58 36.11Q11.28 36.05 11.05 35.82ZM10.91 35.67Q10.57 35.34 10.6 34.96Q10.63 34.58 11.02 34.19L13.07 32.14Q13.24 31.97 13.52 32.26L13.67 32.4Q13.82 32.56 13.85 32.66Q13.88 32.77 13.79 32.86L11.88 34.76Q11.71 34.94 11.68 35.09Q11.66 35.24 11.81 35.39Q11.92 35.5 12.09 35.53Q12.26 35.55 12.43 35.5L14.44 33.5Q14.6 33.34 14.89 33.63L15.03 33.77Q15.32 34.05 15.15 34.22L13.28 36.09Q12.9 36.48 12.75 36.68Q12.61 36.88 12.57 36.91Q12.48 37 12.25 36.85Q12.02 36.7 11.87 36.54Q11.77 36.45 11.8 36.35Q11.83 36.25 11.91 36.14Q12 36.03 12.04 35.96Q11.73 36.02 11.43 35.96Q11.13 35.9 10.91 35.67ZM14.02 38.78Q13.72 38.48 13.72 38.09Q13.73 37.71 14.15 37.28L15.77 35.67L15.66 35.57Q15.59 35.49 15.6 35.39Q15.63 35.3 15.76 35.17L15.84 35.09Q15.97 34.96 16.06 34.93Q16.16 34.92 16.24 35L16.34 35.1L16.97 34.62Q17.15 34.47 17.39 34.71L17.53 34.85Q17.77 35.09 17.61 35.26L17.05 35.81L17.32 36.08Q17.4 36.16 17.37 36.25Q17.36 36.34 17.23 36.47L17.14 36.56Q17.01 36.69 16.91 36.7Q16.82 36.73 16.75 36.65L16.48 36.38L14.88 37.98Q14.74 38.12 14.72 38.22Q14.71 38.32 14.79 38.4Q14.83 38.45 14.9 38.49Q14.96 38.53 14.98 38.55Q15.04 38.61 14.95 38.8Q14.85 38.98 14.78 39.06Q14.65 39.18 14.43 39.07Q14.21 38.96 14.02 38.78ZM13.88 38.63Q13.57 38.33 13.57 37.94Q13.58 37.56 14.01 37.13L15.62 35.52L15.52 35.42Q15.44 35.34 15.45 35.24Q15.48 35.15 15.61 35.02L15.69 34.94Q15.82 34.81 15.91 34.78Q16.01 34.77 16.09 34.85L16.19 34.95L16.82 34.47Q17 34.32 17.24 34.56L17.38 34.7Q17.62 34.94 17.46 35.11L16.9 35.66L17.17 35.93Q17.25 36.01 17.22 36.1Q17.21 36.19 17.08 36.32L16.99 36.41Q16.86 36.54 16.77 36.56Q16.68 36.58 16.6 36.5L16.33 36.23L14.73 37.83Q14.59 37.97 14.57 38.07Q14.56 38.17 14.64 38.25Q14.68 38.3 14.75 38.34Q14.81 38.38 14.83 38.4Q14.89 38.46 14.8 38.65Q14.7 38.83 14.63 38.91Q14.5 39.03 14.28 38.92Q14.06 38.81 13.88 38.63Z"/>
    <path fill="#000000" d="M34.4 36.09Q34.12 35.81 34.25 35.68Q34.27 35.67 34.37 35.59L39.5 32.55Q39.69 32.43 40 32.73L40.34 33.07Q40.64 33.37 40.53 33.58L37.48 38.7Q37.4 38.8 37.38 38.82Q37.26 38.95 37 38.69L36.74 38.43Q36.47 38.16 36.56 38.01L37.23 36.94L36.12 35.83L35.05 36.5Q34.9 36.59 34.65 36.35L34.4 36.09ZM36.92 35.28L37.78 36.14L38.92 34.32Q39.08 34.07 39.3 33.79L39.27 33.76Q38.99 33.97 38.74 34.13L36.92 35.28ZM34.23 35.92Q33.95 35.64 34.08 35.52Q34.1 35.5 34.2 35.42L39.33 32.38Q39.53 32.26 39.83 32.56L40.17 32.9Q40.47 33.21 40.36 33.41L37.31 38.53Q37.24 38.63 37.22 38.65Q37.09 38.78 36.83 38.52L36.57 38.27Q36.3 37.99 36.4 37.85L37.06 36.77L35.96 35.66L34.88 36.33Q34.73 36.43 34.49 36.18L34.23 35.92ZM36.75 35.11L37.62 35.97L38.76 34.15Q38.92 33.9 39.13 33.62L39.1 33.59Q38.82 33.8 38.57 33.96L36.75 35.11ZM39.16 38.05Q39.07 37.96 39.1 37.86Q39.13 37.75 39.27 37.61L39.32 37.56Q39.46 37.42 39.57 37.39Q39.67 37.36 39.76 37.45L40.79 38.48Q40.88 38.57 40.85 38.68Q40.83 38.78 40.68 38.92L40.63 38.97Q40.49 39.11 40.38 39.15Q40.28 39.17 40.19 39.08L39.16 38.05ZM38.99 37.88Q38.9 37.79 38.93 37.69Q38.96 37.58 39.1 37.44L39.15 37.39Q39.3 37.25 39.4 37.22Q39.5 37.2 39.59 37.29L40.62 38.32Q40.71 38.41 40.68 38.51Q40.66 38.61 40.51 38.76L40.46 38.81Q40.32 38.95 40.21 38.98Q40.11 39 40.02 38.91L38.99 37.88ZM41.13 42.89Q39.49 41.25 41.77 38.97Q44.03 36.7 45.68 38.34Q47.31 39.98 45.05 42.25Q42.77 44.52 41.13 42.89ZM41.85 42.18Q42.24 42.57 42.79 42.4Q43.34 42.23 44.19 41.39Q45.03 40.54 45.19 40Q45.36 39.46 44.97 39.06Q44.57 38.66 44.02 38.83Q43.48 38.99 42.63 39.83Q41.79 40.68 41.62 41.23Q41.45 41.78 41.85 42.18ZM40.96 42.72Q39.32 41.08 41.6 38.8Q43.87 36.53 45.51 38.18Q47.14 39.81 44.88 42.08Q42.6 44.36 40.96 42.72ZM41.68 42.01Q42.07 42.4 42.62 42.24Q43.17 42.06 44.02 41.22Q44.87 40.37 45.02 39.83Q45.2 39.29 44.8 38.9Q44.4 38.49 43.85 38.66Q43.31 38.82 42.47 39.67Q41.62 40.51 41.45 41.07Q41.28 41.61 41.68 42.01ZM44.31 46.08Q43.94 45.71 43.97 45.28Q44.01 44.85 44.44 44.42L46.75 42.11Q46.94 41.92 47.26 42.25L47.42 42.4Q47.59 42.58 47.62 42.7Q47.66 42.82 47.56 42.91L45.42 45.06Q45.22 45.26 45.19 45.43Q45.17 45.6 45.33 45.76Q45.46 45.89 45.64 45.92Q45.84 45.95 46.03 45.89L48.29 43.64Q48.47 43.45 48.79 43.78L48.96 43.94Q49.28 44.26 49.09 44.45L46.99 46.55Q46.55 46.99 46.39 47.22Q46.23 47.44 46.19 47.48Q46.09 47.58 45.83 47.41Q45.57 47.23 45.4 47.06Q45.29 46.95 45.32 46.85Q45.36 46.73 45.45 46.6Q45.54 46.48 45.59 46.41Q45.24 46.48 44.91 46.41Q44.57 46.34 44.31 46.08ZM44.15 45.92Q43.77 45.54 43.8 45.11Q43.84 44.68 44.27 44.25L46.58 41.94Q46.77 41.75 47.09 42.08L47.25 42.24Q47.42 42.41 47.46 42.53Q47.49 42.65 47.39 42.75L45.25 44.89Q45.05 45.09 45.02 45.26Q45 45.43 45.16 45.6Q45.29 45.72 45.48 45.76Q45.67 45.78 45.86 45.72L48.12 43.47Q48.3 43.29 48.63 43.61L48.79 43.78Q49.11 44.09 48.93 44.28L46.82 46.39Q46.39 46.82 46.22 47.05Q46.06 47.27 46.02 47.31Q45.92 47.41 45.66 47.24Q45.4 47.07 45.23 46.9Q45.12 46.79 45.15 46.68Q45.19 46.56 45.28 46.44Q45.37 46.32 45.43 46.24Q45.08 46.31 44.74 46.24Q44.4 46.17 44.15 45.92ZM47.66 49.41Q47.31 49.07 47.31 48.63Q47.32 48.2 47.8 47.72L49.62 45.91L49.5 45.8Q49.41 45.71 49.43 45.6Q49.46 45.5 49.6 45.35L49.7 45.26Q49.84 45.11 49.95 45.08Q50.05 45.06 50.14 45.15L50.26 45.27L50.96 44.73Q51.17 44.56 51.44 44.84L51.59 44.99Q51.87 45.26 51.68 45.45L51.06 46.07L51.36 46.37Q51.45 46.46 51.42 46.56Q51.4 46.67 51.26 46.81L51.16 46.91Q51.02 47.06 50.91 47.08Q50.81 47.1 50.72 47.01L50.42 46.71L48.62 48.51Q48.46 48.67 48.44 48.78Q48.43 48.9 48.51 48.98Q48.57 49.04 48.64 49.08Q48.71 49.12 48.73 49.15Q48.8 49.22 48.69 49.43Q48.58 49.64 48.5 49.72Q48.36 49.86 48.11 49.74Q47.86 49.61 47.66 49.41ZM47.49 49.24Q47.14 48.9 47.14 48.47Q47.16 48.03 47.63 47.56L49.45 45.74L49.33 45.63Q49.24 45.54 49.26 45.43Q49.29 45.33 49.43 45.18L49.53 45.09Q49.68 44.94 49.78 44.92Q49.89 44.9 49.98 44.99L50.09 45.1L50.8 44.56Q51 44.39 51.27 44.67L51.43 44.82Q51.7 45.09 51.52 45.28L50.89 45.9L51.19 46.2Q51.28 46.29 51.25 46.39Q51.24 46.5 51.09 46.65L50.99 46.74Q50.85 46.89 50.74 46.91Q50.64 46.93 50.55 46.84L50.25 46.55L48.45 48.35Q48.3 48.5 48.27 48.61Q48.26 48.73 48.35 48.82Q48.4 48.87 48.47 48.91Q48.54 48.96 48.56 48.98Q48.63 49.05 48.52 49.26Q48.42 49.47 48.33 49.56Q48.19 49.7 47.94 49.57Q47.69 49.45 47.49 49.24Z"/>
</svg>
