<svg version="1.1" id="knot-lfx" xmlns="http://www.w3.org/2000/svg" xmlns:xlink="http://www.w3.org/1999/xlink" x="0px" y="0px" viewBox="0 0 143.19 143.06" style="enable-background:new 0 0 143.19 143.06;" xml:space="preserve"> <style type="text/css"> .st0{display:none;} .st1{display:inline;} .st2{fill:#1FFD00;} .st3{fill:#FB1800;} .st4{fill:#FDFF00;} .st5{fill:#1E00FF;} </style> <g> <g class="st0"> <path class="st1" d="M143.09,0.1v142.57H0.52V0.1H143.09 M145.09-1.9h-2H0.52h-2v2v142.57v2h2h142.57h2v-2V0.1V-1.9L145.09-1.9z" /> </g> <path class="st2" d="M71.61,71.24c0,0,53.11-55.52,71.38-50.75c0.12,4.9,0.07,34.21,0.02,39.89 c-10.87-2.42-21.74,16.06-39.75,28.33S0.3,122.01,0.3,122.01c-0.46-5.96-0.33-20.82-0.02-39.89 C16.02,69.88,71.61,71.24,71.61,71.24z"/> <path id="Left_-_In_5_" class="st3" d="M60.73,0.1c0,0-30.16,0-39.29,0c-0.15,18.06,8.06,28.77,11.18,32.18 C29.2,29.16,18.5,20.95,0.43,21.1c0,9.14,0,39.29,0,39.29L89.3,88.99L60.73,0.1z"/> <path class="st4" d="M71.82,71.45c0,0,55.52-53.11,50.75-71.38c-4.9-0.12-34.21-0.07-39.89-0.02 c2.42,10.87-16.06,21.74-28.33,39.75S21.05,142.76,21.05,142.76c5.96,0.46,20.82,0.33,39.89,0.02 C73.18,127.04,71.82,71.45,71.82,71.45z"/> <path id="Right_Out_5_" class="st5" d="M118.91,84.89L80.6,0.1c0,0-19.88,0-27.48,0c-10.98,21.19,20.7,73.41,20.7,73.41 S21.6,41.83,0.41,52.81c0,7.6,0,27.48,0,27.48l84.79,38.31l16.85-16.85L118.91,84.89z"/> <path id="Right_In_5_" class="st5" d="M121.5,121.18c0,0,9.02,7.01,21.59,1.05c-0.2-8.05,0-39.15,0-39.15l-41.03,18.66L83.4,142.77 c0,0,31.1-0.2,39.15,0C128.51,130.2,121.5,121.18,121.5,121.18z"/> <path id="Left_-_Out_5_" class="st3" d="M143.09,90.85v-7.77c0,0,0.11-13.11,0.1-22.47c-6.29-5.72-22.28-1.85-22.28-1.85 L89.97,89.65l-30.89,30.94c0,0-3.88,16,1.85,22.28c9.36,0,22.47-0.1,22.47-0.1h7.77l25.96-25.96L143.09,90.85z"/> </g> </svg>